<?xml version="1.0" standalone="no"?>
<!DOCTYPE svg PUBLIC "-//W3C//DTD SVG 20010904//EN"
 "http://www.w3.org/TR/2001/REC-SVG-20010904/DTD/svg10.dtd">
<svg version="1.0" xmlns="http://www.w3.org/2000/svg"
 width="1028.000000pt" height="1028.000000pt" viewBox="0 0 1028.000000 1028.000000"
 preserveAspectRatio="xMidYMid meet">
<metadata>
Created by potrace 1.14, written by Peter Selinger 2001-2017
</metadata>
<g transform="translate(0.000000,1028.000000) scale(0.100000,-0.100000)"
fill="#000000" stroke="none">
<path d="M4459 8258 c-4 -134 0 -518 5 -526 6 -10 179 -108 220 -125 13 -5 46
9 120 53 55 33 105 61 111 63 6 2 10 107 10 279 l0 276 -29 -15 c-15 -8 -60
-34 -100 -57 -39 -23 -79 -45 -88 -49 -17 -6 -109 38 -116 55 -2 4 -11 8 -21
8 -9 0 -21 4 -26 8 -6 5 -27 19 -47 31 l-38 23 -1 -24z"/>
<path d="M5343 8005 l0 -275 118 -65 c109 -61 119 -65 146 -53 15 7 30 15 33
18 5 5 25 16 123 68 27 14 51 30 53 36 2 6 3 132 2 279 l-3 267 -37 -25 c-21
-14 -38 -23 -38 -19 0 4 -8 1 -17 -8 -10 -8 -46 -29 -80 -46 l-62 -32 -58 31
c-32 17 -86 47 -119 65 l-62 35 1 -276z"/>
<path d="M3562 7008 c0 -90 -1 -167 -2 -173 -1 -5 -2 -12 -1 -15 1 -3 3 -50 4
-105 l2 -100 114 -62 c62 -35 119 -63 125 -63 6 0 36 15 66 33 30 18 63 36 72
39 9 4 34 18 56 32 l40 25 2 143 c1 79 1 154 0 168 -1 14 -2 30 -1 35 1 22 2
132 2 162 -1 39 -7 38 -96 -12 -38 -22 -73 -38 -77 -37 -5 1 -8 -1 -8 -6 0
-15 -62 -35 -79 -25 -9 5 -56 31 -106 58 -49 26 -95 52 -102 57 -9 7 -12 -30
-11 -154z"/>
<path d="M4459 7143 c-1 -25 -1 -473 0 -503 1 -26 -3 -23 193 -129 l46 -25
114 66 113 66 0 271 c0 314 15 291 -128 204 -58 -35 -95 -52 -107 -48 -11 3
-64 31 -118 60 -55 30 -102 55 -106 55 -3 0 -6 -8 -7 -17z"/>
<path d="M5344 6889 l1 -271 90 -52 c148 -85 139 -83 226 -36 41 22 93 51 117
62 39 21 42 25 42 65 1 24 1 117 1 208 0 306 0 295 -16 295 -8 0 -15 -5 -15
-12 0 -6 -3 -8 -6 -5 -4 4 -19 -2 -33 -12 -14 -10 -58 -35 -97 -55 l-70 -38
-80 41 c-43 23 -92 50 -109 61 -16 10 -35 19 -41 19 -8 1 -11 -77 -10 -270z"/>
<path d="M6239 7153 c0 -5 -1 -125 -1 -268 l-1 -260 39 -26 c21 -14 76 -46
121 -70 80 -43 83 -43 110 -27 15 9 53 29 83 45 30 16 71 39 91 51 l36 22 -1
264 c-1 145 -4 268 -8 272 -4 4 -13 2 -20 -3 -7 -6 -58 -34 -112 -63 l-100
-53 -30 17 c-68 39 -194 106 -200 106 -3 0 -6 -3 -7 -7z"/>
<path d="M0 5774 c0 -263 0 -266 22 -285 13 -10 26 -18 30 -19 4 0 47 -24 95
-53 49 -30 95 -51 103 -49 8 3 29 16 46 29 17 12 36 23 42 23 7 0 12 5 12 10
0 6 6 10 13 10 7 0 23 9 35 20 12 11 25 20 30 20 5 0 16 8 24 18 13 14 15 58
13 277 -1 143 -3 261 -3 262 -1 1 -52 -27 -113 -62 -100 -57 -139 -70 -139
-44 0 5 -7 9 -16 9 -9 0 -28 8 -42 18 -15 10 -55 33 -89 50 l-63 32 0 -266z"/>
<path d="M896 5787 c1 -138 2 -259 3 -268 0 -9 34 -37 74 -62 39 -25 77 -50
82 -54 6 -4 24 -16 41 -25 29 -16 31 -16 77 13 26 16 51 29 56 29 5 0 11 4 13
8 2 5 29 23 61 41 31 18 57 36 58 39 1 10 1 515 0 525 -1 8 -57 -21 -194 -97
-40 -23 -51 -25 -64 -15 -16 14 -47 33 -73 46 -8 4 -41 22 -72 40 -31 18 -58
33 -60 33 -2 0 -2 -114 -2 -253z"/>
<path d="M1780 5772 l0 -267 117 -70 c65 -39 124 -69 132 -67 7 2 26 12 40 21
14 10 63 40 109 67 l82 49 -1 260 c0 143 -3 263 -6 268 -3 4 -15 2 -26 -6 -12
-8 -49 -29 -82 -47 -33 -18 -74 -41 -91 -51 -26 -16 -34 -16 -55 -5 -54 28
-165 89 -174 96 -5 4 -18 10 -27 13 -17 6 -18 -11 -18 -261z"/>
<path d="M2679 6038 c0 -2 -1 -120 -2 -263 -2 -277 -4 -264 45 -300 60 -44
192 -116 197 -108 7 10 38 29 66 42 11 5 43 24 72 43 28 18 59 38 69 44 16 10
18 32 18 277 1 147 0 267 -2 267 -4 0 -119 -62 -191 -103 l-44 -25 -46 25
c-25 14 -50 29 -56 33 -21 15 -125 71 -126 68z"/>
<path d="M3562 5782 c-1 -261 1 -292 20 -292 5 0 29 -13 53 -29 23 -16 71 -44
106 -64 l64 -35 105 63 c58 35 111 68 117 75 8 6 12 33 12 64 -1 30 2 59 5 65
4 6 3 11 -3 11 -6 0 -7 11 -2 28 4 15 4 39 0 54 -4 15 -5 29 -2 31 2 3 4 38 4
79 -1 40 -1 104 -1 141 l1 68 -90 -48 c-49 -26 -104 -55 -121 -65 -31 -16 -31
-16 -133 41 -57 31 -110 60 -119 63 -14 6 -16 -19 -16 -250z"/>
<path d="M4459 5973 c-3 -246 -1 -465 5 -471 4 -3 57 -37 119 -73 92 -55 115
-65 131 -57 11 6 63 39 116 73 l96 62 -1 261 c0 229 -7 307 -22 265 -3 -7 -8
-13 -13 -13 -4 0 -49 -25 -100 -55 l-93 -54 -41 23 c-22 12 -68 38 -101 56
-33 18 -64 36 -69 41 -21 19 -26 7 -27 -58z"/>
<path d="M5343 5774 l-1 -266 67 -42 c36 -24 82 -51 101 -62 19 -10 37 -22 40
-26 13 -17 80 -7 80 13 0 5 4 9 9 9 5 0 48 24 95 52 l86 53 0 268 0 268 -84
-45 c-46 -25 -100 -54 -119 -65 -39 -22 -23 -27 -175 57 -50 29 -94 52 -95 52
-2 0 -4 -120 -4 -266z"/>
<path d="M6239 6023 c-1 -24 -1 -472 0 -501 1 -15 9 -26 21 -29 11 -3 20 -9
20 -14 0 -5 4 -9 9 -9 4 0 36 -17 70 -37 127 -78 112 -73 151 -51 19 10 51 28
71 41 19 12 58 35 85 51 l51 29 -1 266 c-1 173 -4 265 -11 262 -5 -2 -18 -6
-27 -9 -10 -2 -18 -9 -18 -15 0 -6 -3 -7 -6 -4 -4 4 -19 -2 -34 -13 -16 -11
-31 -20 -34 -20 -3 0 -28 -13 -55 -29 l-50 -30 -43 23 c-200 109 -198 108
-199 89z"/>
<path d="M7135 5773 l0 -268 113 -72 c101 -64 116 -71 138 -61 13 6 24 15 24
20 0 4 4 8 9 8 13 0 181 101 182 109 1 8 1 491 0 514 -1 19 -24 8 -207 -94
-30 -16 -32 -16 -85 13 -30 16 -79 45 -110 64 -31 19 -58 34 -60 34 -2 0 -4
-120 -4 -267z"/>
<path d="M8019 5851 c0 -105 0 -220 0 -256 0 -36 0 -72 0 -80 1 -9 11 -20 24
-25 25 -11 59 -32 67 -41 3 -3 12 -8 20 -12 8 -4 33 -18 55 -31 22 -14 47 -30
56 -35 17 -11 17 -11 158 73 l99 60 0 268 c-1 147 -3 266 -7 265 -34 -16 -87
-43 -91 -47 -3 -3 -36 -22 -74 -42 l-69 -36 -76 41 c-42 22 -78 43 -81 47 -3
3 -18 12 -35 20 -16 8 -33 16 -37 18 -5 2 -8 -82 -9 -187z"/>
<path d="M8918 6033 c-3 -4 -4 -125 -4 -268 l1 -259 119 -72 c135 -82 109 -83
254 10 76 49 92 64 93 85 3 94 1 502 -2 505 -2 3 -54 -24 -114 -59 l-110 -64
-65 36 c-36 20 -88 49 -117 65 -28 16 -53 25 -55 21z"/>
<path d="M9800 5772 l0 -268 68 -39 c37 -21 69 -41 72 -45 5 -5 39 -25 78 -46
22 -11 35 -5 142 59 l118 71 0 260 c0 144 -2 264 -4 268 -3 4 -31 -9 -63 -27
-33 -19 -64 -35 -69 -35 -6 0 -17 -6 -24 -12 -26 -24 -80 -50 -87 -42 -3 5
-37 24 -76 43 -38 19 -87 45 -107 58 -21 13 -40 23 -43 23 -3 0 -5 -121 -5
-268z"/>
<path d="M2 4654 l3 -277 117 -65 118 -64 112 66 113 65 1 271 c0 149 -3 273
-7 275 -3 3 -12 -2 -19 -10 -7 -8 -16 -15 -20 -15 -5 0 -46 -23 -93 -50 l-86
-50 -43 22 c-24 12 -45 24 -48 27 -3 4 -38 23 -78 44 l-72 38 2 -277z"/>
<path d="M897 4922 c-2 -4 -3 -128 -2 -275 l1 -268 79 -46 c44 -25 96 -54 115
-65 l35 -19 120 66 120 66 -2 267 c-1 147 -2 270 -2 274 -1 3 -20 -4 -43 -17
-24 -12 -77 -41 -120 -64 l-76 -41 -111 64 c-61 36 -112 62 -114 58z"/>
<path d="M1782 4655 l3 -277 117 -65 117 -65 63 35 c35 18 88 47 118 64 l55
30 2 276 3 277 -68 -36 c-37 -20 -90 -50 -119 -66 l-52 -29 -43 24 c-24 13
-78 43 -121 66 l-77 43 2 -277z"/>
<path d="M2678 4912 c-2 -9 -3 -132 -3 -272 l1 -255 40 -26 c21 -14 59 -38 84
-51 25 -14 59 -33 75 -43 30 -17 30 -17 111 29 45 25 87 46 93 46 6 0 11 3 11
8 0 4 12 13 28 19 l27 12 -1 268 c-1 148 -2 271 -3 275 -1 6 -55 -22 -194
-101 l-38 -21 -62 33 c-34 19 -85 48 -114 65 -44 26 -52 28 -55 14z"/>
<path d="M3564 4654 l1 -276 40 -22 c22 -13 75 -42 118 -65 l77 -42 118 63
c130 70 131 73 119 188 -2 14 0 36 3 50 4 14 4 36 0 50 -4 14 -3 37 1 53 4 15
4 27 -1 27 -5 0 -5 12 -1 28 4 15 5 38 1 52 -4 14 -4 35 -1 47 3 12 4 45 3 72
l-4 50 -31 -18 c-18 -10 -71 -39 -119 -65 l-87 -47 -53 29 c-29 16 -83 46
-119 66 l-67 36 2 -276z"/>
<path d="M4459 4909 c0 -13 -1 -136 -1 -273 -2 -288 -19 -247 139 -332 l101
-55 114 66 113 65 -1 268 c-1 147 -2 270 -3 275 0 4 -19 -4 -41 -18 -22 -14
-43 -25 -47 -25 -3 0 -14 -6 -22 -14 -9 -7 -38 -25 -64 -40 l-49 -27 -96 52
c-54 29 -107 59 -119 67 -22 13 -23 13 -24 -9z"/>
<path d="M5343 4655 l-1 -275 119 -65 118 -66 73 37 c40 21 75 40 78 43 3 3
23 16 45 28 l40 22 3 276 2 276 -57 -32 c-32 -18 -86 -48 -120 -66 l-63 -34
-32 18 c-18 10 -41 24 -50 32 -10 8 -18 11 -18 6 0 -4 -6 -3 -12 3 -7 5 -38
24 -69 41 l-56 30 0 -274z"/>
<path d="M6238 4905 c-3 -14 -1 -28 4 -31 4 -3 5 -10 2 -16 -4 -6 -7 -114 -7
-241 0 -215 1 -231 19 -243 10 -7 24 -18 31 -24 7 -5 16 -10 20 -10 4 0 44
-21 88 -46 l80 -46 50 27 c28 14 82 43 120 64 l70 38 1 269 c0 148 -1 272 -3
276 -2 3 -55 -23 -118 -58 l-115 -65 -77 42 c-43 22 -97 52 -119 65 l-42 24
-4 -25z"/>
<path d="M7139 4917 c-1 -6 -2 -129 -3 -272 -1 -233 0 -261 15 -272 10 -7 61
-38 114 -68 91 -53 97 -55 123 -42 119 62 189 102 201 113 11 10 14 62 13 266
0 139 -1 261 -1 271 -1 15 -8 14 -53 -13 -29 -17 -78 -43 -108 -58 -30 -15
-58 -31 -62 -37 -8 -11 -11 -10 -150 73 -52 30 -89 47 -89 39z"/>
<path d="M8019 4907 c-2 -94 2 -521 6 -527 3 -4 19 -15 37 -24 18 -9 56 -30
83 -46 28 -15 64 -36 82 -45 35 -18 25 -22 213 83 l55 31 1 275 c1 152 -1 274
-5 272 -3 -2 -57 -31 -119 -65 l-112 -62 -88 47 c-48 26 -102 55 -119 65 -33
19 -33 19 -34 -4z"/>
<path d="M8919 4922 c-1 -4 -2 -125 -3 -270 -1 -224 1 -265 14 -276 8 -7 61
-38 118 -70 118 -65 91 -67 240 19 45 26 85 52 89 57 4 8 8 501 4 540 -1 4
-51 -22 -112 -57 -60 -36 -112 -65 -113 -65 -2 0 -56 29 -120 64 -64 35 -117
61 -117 58z"/>
<path d="M9801 4908 c0 -13 0 -36 0 -53 1 -16 1 -37 1 -45 -4 -115 0 -426 6
-432 4 -4 27 -18 52 -31 25 -13 75 -41 112 -61 l67 -37 63 34 c35 18 89 48
120 66 l57 32 -1 275 -1 274 -51 -28 c-28 -16 -81 -46 -118 -66 l-67 -37 -68
37 c-37 20 -91 50 -120 66 l-52 29 0 -23z"/>
<path d="M0 3544 l0 -279 62 -33 c35 -18 88 -47 119 -64 61 -33 59 -34 134 12
28 16 59 34 70 39 11 6 34 19 50 30 l30 21 1 270 c0 218 -2 270 -13 270 -7 0
-13 -3 -13 -7 0 -5 -10 -13 -23 -19 -12 -6 -57 -33 -100 -60 -76 -47 -80 -48
-105 -33 -15 9 -38 22 -52 30 -14 8 -27 16 -30 19 -3 3 -25 16 -50 29 -25 13
-53 31 -62 39 -17 14 -18 1 -18 -264z"/>
<path d="M1350 3812 c0 -7 -5 -12 -10 -12 -6 0 -45 -21 -88 -48 -42 -26 -89
-54 -104 -61 -29 -15 -28 -15 -170 76 -37 24 -71 43 -75 43 -8 0 -11 -536 -3
-543 3 -3 54 -33 114 -68 l109 -63 61 33 c33 18 87 47 119 64 31 16 57 37 58
46 4 77 0 533 -5 538 -3 3 -6 1 -6 -5z"/>
<path d="M3562 3733 c0 -48 -1 -92 -2 -98 -1 -5 -2 -12 -1 -15 3 -7 3 -293 1
-305 -1 -5 -1 -13 0 -17 1 -5 3 -14 4 -20 1 -12 218 -138 237 -138 4 0 36 16
71 35 35 20 87 48 115 62 52 26 53 28 53 72 0 26 1 53 1 61 1 8 1 31 0 50 -1
19 -1 42 0 50 1 8 0 59 -1 113 -1 54 0 100 3 103 3 3 2 17 -2 32 -4 15 -4 39
0 54 4 16 3 30 -2 34 -5 3 -59 -24 -120 -60 -61 -36 -114 -66 -119 -66 -12 0
-84 43 -88 52 -2 4 -10 8 -17 8 -8 0 -20 6 -27 13 -7 6 -26 19 -43 27 -16 8
-38 20 -47 28 -15 13 -17 7 -16 -75z"/>
<path d="M7135 3543 l0 -275 55 -33 c30 -18 83 -48 116 -66 l62 -32 53 30 c30
17 81 45 114 63 33 18 62 34 64 36 3 3 4 462 1 529 -1 17 -4 24 -7 18 -2 -7
-9 -13 -13 -13 -5 0 -54 -27 -108 -60 -55 -33 -105 -60 -111 -60 -13 0 -94 51
-99 63 -2 4 -8 7 -14 7 -5 0 -28 13 -51 28 -23 16 -47 31 -52 34 -7 4 -10 -88
-10 -269z"/>
<path d="M1780 3535 c0 -162 4 -275 9 -275 5 0 57 -27 116 -60 71 -41 113 -59
125 -55 11 3 66 32 122 63 l103 58 3 272 c1 150 -1 272 -5 272 -5 0 -25 -10
-45 -23 -149 -88 -182 -107 -190 -107 -13 0 -132 72 -136 83 -2 4 -9 7 -16 7
-8 0 -25 9 -39 20 -14 11 -30 20 -36 20 -8 0 -11 -83 -11 -275z"/>
<path d="M2678 3798 c-2 -7 -3 -130 -3 -272 l1 -259 114 -65 115 -65 65 34
c36 19 67 36 70 39 3 3 26 16 52 29 28 15 48 33 50 45 6 37 2 515 -4 521 -4 4
-55 -23 -114 -59 -60 -36 -113 -66 -119 -66 -6 0 -34 16 -62 35 -29 19 -54 35
-57 35 -3 0 -25 14 -49 30 -51 34 -53 35 -59 18z"/>
<path d="M6239 3793 c-3 -62 -1 -524 2 -527 2 -2 51 -29 109 -60 58 -32 109
-61 113 -65 5 -5 45 12 90 36 45 25 100 55 122 67 l40 21 1 273 c0 149 -3 272
-7 272 -4 0 -36 -18 -70 -40 -99 -61 -151 -90 -161 -90 -6 0 -45 21 -87 46
-92 57 -140 84 -146 84 -3 0 -5 -8 -6 -17z"/>
<path d="M8019 3800 c0 -13 0 -110 1 -342 l0 -193 111 -60 c62 -33 117 -61
123 -63 6 -1 63 26 126 61 l115 63 1 272 c1 150 -2 272 -5 272 -4 0 -40 -20
-80 -45 -40 -25 -76 -45 -79 -45 -4 0 -20 -11 -37 -24 -32 -26 -20 -28 -116
26 -13 7 -31 18 -39 24 -18 14 -109 64 -115 64 -3 0 -5 -4 -6 -10z"/>
<path d="M8915 3539 l0 -270 115 -64 c63 -36 119 -65 124 -65 7 0 210 114 225
126 6 6 5 533 -1 540 -3 3 -38 -15 -77 -40 -39 -25 -74 -46 -77 -46 -2 0 -14
-9 -26 -20 -12 -11 -29 -20 -37 -20 -9 0 -64 29 -123 65 -60 36 -111 65 -116
65 -4 0 -7 -122 -7 -271z"/>
<path d="M9799 3703 c0 -60 0 -115 0 -123 0 -8 0 -24 1 -35 1 -11 1 -76 1
-144 -1 -68 2 -127 4 -132 7 -10 222 -129 234 -129 5 0 60 28 122 63 l114 62
1 273 c1 149 -1 272 -5 272 -4 0 -28 -13 -54 -30 -26 -16 -51 -30 -54 -30 -4
0 -14 -6 -22 -14 -32 -27 -109 -64 -117 -56 -14 14 -176 110 -186 110 -4 0 -8
5 -8 10 0 6 -7 10 -15 10 -13 0 -15 -18 -16 -107z"/>
<path d="M0 2422 l0 -267 120 -72 120 -72 113 72 113 72 0 268 c0 147 -1 267
-3 267 -2 0 -53 -29 -114 -64 l-111 -65 -34 19 c-18 11 -64 36 -101 56 -37 20
-72 41 -77 45 -6 5 -14 9 -18 9 -4 0 -8 -120 -8 -268z"/>
<path d="M897 2428 c0 -145 2 -266 2 -270 1 -5 64 -47 199 -130 26 -16 28 -16
92 22 36 21 70 42 75 47 6 4 27 17 49 28 21 11 41 28 45 37 4 13 6 444 2 516
-1 9 -21 3 -63 -21 -35 -19 -88 -48 -118 -65 l-55 -30 -40 23 c-22 12 -72 41
-112 64 -40 22 -74 41 -75 41 -2 0 -2 -118 -1 -262z"/>
<path d="M1780 2423 l0 -268 35 -22 c19 -13 37 -23 40 -23 3 0 37 -21 77 -47
40 -25 78 -46 85 -46 6 0 63 30 126 68 l116 69 0 185 c0 102 1 191 2 196 1 6
0 15 -1 20 -1 6 -2 38 -1 72 2 73 6 72 -100 11 -36 -21 -71 -38 -78 -38 -6 0
-11 -4 -11 -8 0 -5 -10 -14 -23 -19 -25 -12 -26 -11 -162 62 -38 20 -74 41
-79 46 -6 5 -14 9 -18 9 -4 0 -8 -120 -8 -267z"/>
<path d="M2678 2683 c-3 -7 -2 -470 1 -514 1 -16 97 -84 154 -110 15 -7 27
-15 27 -19 0 -4 11 -12 24 -18 21 -9 30 -7 58 11 18 13 40 26 48 30 8 3 46 25
85 49 l69 43 1 255 c0 140 -1 261 -3 268 -4 12 -62 -16 -197 -94 l-40 -23 -94
54 c-51 30 -97 55 -102 55 -5 0 -9 5 -9 10 0 12 -17 14 -22 3z"/>
<path d="M3562 2419 c0 -240 2 -271 17 -277 17 -8 114 -65 159 -94 59 -39 59
-39 184 36 l117 70 1 46 c0 25 0 61 -1 80 -1 19 -1 41 -1 48 1 6 1 58 1 115 0
56 1 135 1 174 1 85 13 85 -135 2 l-104 -58 -117 65 c-64 35 -118 64 -119 64
-2 0 -3 -122 -3 -271z"/>
<path d="M6236 2425 c1 -146 3 -267 5 -269 2 -2 56 -36 119 -74 l115 -70 35
19 c19 10 53 30 75 44 22 13 56 33 76 44 19 11 40 25 46 33 6 8 9 106 8 273
-1 143 -3 262 -4 263 0 2 -20 -7 -43 -21 -24 -13 -77 -43 -118 -65 l-75 -40
-50 29 c-27 16 -75 41 -105 56 -30 16 -56 31 -58 36 -2 4 -9 7 -15 7 -9 0 -12
-69 -11 -265z"/>
<path d="M7137 2682 c-2 -4 -3 -124 -3 -267 l1 -259 113 -72 114 -73 31 18
c70 40 112 65 117 71 3 3 22 14 43 25 21 11 41 24 44 28 4 7 7 379 4 505 l-1
33 -87 -47 c-49 -26 -101 -55 -117 -65 -32 -20 -40 -17 -141 46 -64 39 -115
64 -118 57z"/>
<path d="M8020 2578 c-1 -166 -1 -327 -1 -379 l1 -46 78 -46 c42 -25 95 -57
118 -71 l41 -25 106 63 c58 34 112 68 120 74 12 10 14 59 14 277 0 146 -1 265
-3 265 -2 0 -20 -10 -41 -21 -21 -12 -74 -41 -118 -64 l-80 -43 -114 64 c-62
35 -115 64 -117 64 -2 0 -4 -51 -4 -112z"/>
<path d="M8919 2688 c-1 -2 -2 -122 -3 -267 l-1 -263 51 -34 c28 -19 56 -34
63 -34 6 0 11 -4 11 -8 0 -4 12 -13 28 -20 15 -6 41 -21 57 -31 l30 -20 75 47
c41 25 77 50 78 54 2 4 9 8 15 8 7 0 23 9 36 19 l24 18 0 264 c0 207 -3 263
-13 261 -7 -2 -55 -27 -107 -57 -52 -30 -102 -55 -111 -55 -9 0 -30 8 -47 18
-52 32 -185 103 -186 100z"/>
<path d="M9799 2503 c0 -104 0 -197 0 -208 2 -64 0 -108 -3 -114 -3 -4 -2 -12
2 -17 9 -14 136 -94 149 -94 6 0 16 -7 23 -15 7 -8 25 -21 41 -29 32 -16 21
-20 177 73 l90 54 0 269 0 269 -121 -64 -122 -65 -113 64 c-63 35 -116 64
-118 64 -3 0 -5 -84 -5 -187z"/>
</g>
</svg>
