<?xml version="1.0" standalone="no"?>
<!DOCTYPE svg PUBLIC "-//W3C//DTD SVG 20010904//EN"
 "http://www.w3.org/TR/2001/REC-SVG-20010904/DTD/svg10.dtd">
<svg version="1.0" xmlns="http://www.w3.org/2000/svg"
 width="1024.000000pt" height="1024.000000pt" viewBox="0 0 1024.000000 1024.000000"
 preserveAspectRatio="xMidYMid meet">
<metadata>
Created by potrace 1.14, written by Peter Selinger 2001-2017
</metadata>
<g transform="translate(0.000000,1024.000000) scale(0.100000,-0.100000)"
fill="#000000" stroke="none">
<path d="M2399 10236 c-2 -2 -29 -6 -59 -10 -30 -3 -66 -8 -80 -10 -14 -3 -41
-7 -60 -10 -30 -5 -106 -23 -175 -42 -11 -3 -24 -6 -30 -7 -5 -2 -14 -5 -20
-8 -5 -4 -23 -10 -40 -14 -16 -5 -32 -9 -35 -10 -3 -1 -21 -8 -40 -17 -19 -8
-52 -21 -73 -28 -20 -8 -37 -18 -37 -22 0 -4 -6 -8 -12 -8 -16 0 -142 -64
-158 -80 -3 -3 -15 -11 -27 -17 -69 -39 -81 -47 -138 -95 -18 -16 -36 -28 -40
-28 -9 0 -31 -20 -155 -140 -95 -92 -201 -218 -265 -315 -11 -16 -25 -39 -31
-50 -22 -41 -39 -70 -44 -75 -7 -7 -84 -163 -86 -175 -1 -5 -10 -28 -19 -50
-10 -22 -17 -42 -17 -45 0 -3 -9 -26 -19 -52 -10 -26 -21 -58 -23 -70 -3 -13
-9 -38 -15 -55 -5 -18 -8 -33 -5 -33 3 0 0 -9 -6 -20 -6 -11 -13 -44 -16 -73
-3 -28 -8 -55 -10 -58 -2 -4 -7 -37 -11 -75 -11 -92 -10 -6761 0 -6844 4 -36
10 -78 13 -95 2 -16 5 -37 6 -45 0 -8 5 -21 11 -28 5 -7 7 -15 4 -18 -3 -3 4
-36 15 -72 10 -37 21 -74 23 -82 2 -8 4 -15 5 -15 1 0 3 -9 4 -20 3 -21 58
-161 76 -192 5 -10 18 -38 30 -63 11 -25 33 -67 50 -95 17 -27 33 -58 36 -67
4 -10 10 -18 14 -18 5 0 11 -8 15 -19 5 -16 16 -31 55 -78 5 -7 10 -15 10 -18
0 -13 97 -122 190 -215 99 -99 118 -115 185 -165 22 -17 42 -33 43 -37 2 -5 8
-8 13 -8 5 0 30 -15 56 -34 27 -18 71 -46 98 -61 28 -15 54 -31 60 -36 5 -5
17 -9 26 -9 10 0 19 -4 21 -9 3 -9 187 -89 223 -96 11 -3 31 -9 45 -14 25 -10
102 -32 129 -37 7 -1 34 -7 60 -13 25 -6 58 -12 74 -13 15 -1 27 -5 27 -8 0
-3 26 -7 58 -10 75 -6 6717 -6 6759 0 18 3 33 7 33 10 0 3 9 6 20 7 62 5 237
113 298 185 44 50 91 122 85 130 -2 5 0 8 5 8 10 0 35 54 35 76 0 8 3 14 7 14
4 0 7 6 7 13 0 6 6 32 11 57 11 43 10 192 -1 235 -3 11 -8 34 -12 50 -10 40
-67 155 -77 155 -4 0 -8 7 -8 16 0 20 -138 157 -180 179 -23 12 -31 22 -27 36
3 10 1 19 -4 19 -6 0 -5 8 1 20 8 14 8 20 0 20 -8 0 -8 6 0 20 8 14 8 20 0 20
-8 0 -8 6 0 20 8 14 8 20 0 20 -8 0 -8 6 0 20 8 14 8 20 0 20 -8 0 -8 6 0 20
8 14 8 20 0 20 -8 0 -8 6 0 20 8 14 8 20 0 20 -8 0 -8 6 0 20 8 14 8 20 0 20
-8 0 -8 6 0 20 8 14 8 20 0 20 -8 0 -8 6 0 20 8 14 8 20 0 20 -6 0 -8 5 -5 11
10 16 12 79 2 79 -4 0 -5 5 -2 11 9 14 9 134 1 148 -4 6 -3 11 3 11 7 0 7 8 1
25 -6 15 -6 26 0 30 7 4 7 13 0 24 -5 10 -7 21 -3 25 8 8 7 112 -2 125 -3 6
-2 11 4 11 7 0 7 8 1 25 -6 15 -6 26 0 30 6 4 7 13 1 23 -6 11 -6 24 0 35 6 9
6 17 2 17 -10 0 -8 63 2 79 3 6 1 11 -5 11 -8 0 -8 6 0 20 8 14 8 20 0 20 -8
0 -8 6 0 20 8 14 8 20 0 20 -8 0 -8 6 0 20 8 14 8 20 0 20 -8 0 -8 6 0 20 8
14 8 20 0 20 -8 0 -8 6 0 20 8 14 8 20 0 20 -8 0 -8 6 0 20 8 14 8 20 0 20 -8
0 -8 6 0 20 8 14 8 20 0 20 -8 0 -8 6 0 20 8 14 8 20 0 20 -8 0 -8 6 0 20 8
14 8 20 0 20 -7 0 -8 6 0 19 7 14 7 22 0 26 -7 4 -7 11 -2 18 5 7 6 21 2 32
-9 26 3 59 36 93 37 39 132 166 146 196 6 14 15 26 20 26 4 0 7 3 6 8 -1 4 10
33 25 65 15 32 27 63 27 71 0 7 3 16 7 20 5 4 9 12 9 17 1 5 2 10 4 12 3 4 9
31 25 116 13 75 15 408 12 3075 -1 1645 -5 3000 -9 3011 -3 11 -11 41 -17 67
-50 216 -203 434 -397 563 -69 47 -192 108 -243 121 -9 2 -54 13 -101 24 -84
19 -134 19 -3256 20 -1744 0 -3173 -2 -3175 -4z m1171 -2558 c0 4 14 7 30 7
17 0 30 -4 30 -8 0 -5 5 -5 11 -2 14 9 117 10 126 2 3 -4 12 -2 19 4 8 7 14 7
19 -1 4 -6 12 -7 24 -1 10 6 23 6 31 1 8 -5 21 -5 31 1 11 6 20 5 24 -1 4 -7
12 -7 25 0 13 7 21 7 25 0 4 -7 13 -7 26 0 13 8 19 7 19 0 0 -6 4 -8 10 -5 16
10 90 11 90 2 0 -4 5 -5 11 -2 14 9 117 10 126 2 3 -4 12 -2 19 4 8 7 14 7 19
-1 4 -6 12 -7 24 -1 10 6 23 6 31 1 8 -5 21 -5 31 1 11 6 20 5 24 -1 4 -7 12
-7 25 0 13 7 21 7 25 0 4 -7 13 -7 26 0 13 8 19 7 19 0 0 -6 4 -8 10 -5 16 10
90 11 90 2 0 -4 5 -5 11 -2 14 9 117 10 126 2 3 -4 12 -2 19 4 8 7 14 7 19 -1
4 -6 12 -7 24 -1 10 6 23 6 31 1 8 -5 21 -5 31 1 11 6 20 5 24 -1 4 -7 12 -7
25 0 10 6 21 6 24 2 6 -9 59 -7 75 3 6 3 11 2 11 -4 0 -6 11 -6 30 -1 17 5 30
5 30 2 0 -8 79 -6 87 2 3 3 16 1 29 -4 16 -6 24 -6 24 1 0 6 7 6 19 -1 14 -7
22 -7 26 0 4 7 11 7 18 2 7 -5 21 -6 32 -2 11 4 30 4 43 -1 14 -5 22 -5 22 2
0 6 7 6 19 -1 14 -7 22 -7 26 0 4 7 11 7 18 2 7 -5 21 -6 32 -2 11 4 30 4 43
-1 14 -5 22 -5 22 2 0 6 7 6 19 -1 14 -7 22 -7 26 0 4 7 11 7 18 2 7 -5 21 -6
32 -2 11 4 30 4 43 -1 14 -5 22 -5 22 2 0 6 7 6 19 -1 14 -7 22 -7 26 0 4 7
11 7 18 2 7 -5 21 -6 32 -2 11 4 30 4 43 -1 14 -5 22 -5 22 2 0 6 7 6 19 -1
14 -7 22 -7 26 0 4 7 11 7 18 2 7 -5 21 -6 32 -2 11 4 30 4 43 -1 14 -5 22 -5
22 2 0 6 7 6 19 -1 14 -7 22 -7 26 0 4 7 11 7 18 2 7 -5 21 -6 32 -2 11 4 30
4 43 -1 14 -5 22 -5 22 2 0 6 7 6 19 -1 14 -7 22 -7 26 0 4 7 11 7 18 2 7 -5
21 -6 32 -2 11 4 30 4 43 -1 14 -5 22 -5 22 2 0 6 7 6 19 -1 14 -7 22 -7 26 0
4 7 11 7 18 2 7 -5 21 -6 32 -2 11 4 30 4 43 -1 14 -5 22 -5 22 2 0 6 7 6 19
-1 14 -7 22 -7 26 0 4 7 11 7 18 2 7 -5 21 -6 32 -2 11 4 30 4 43 -1 14 -5 22
-5 22 2 0 6 7 6 19 -1 14 -7 22 -7 26 0 4 7 11 7 18 2 7 -5 21 -6 32 -2 11 4
30 4 43 -1 14 -5 22 -5 22 2 0 6 7 6 19 -1 14 -7 22 -7 26 0 4 7 11 7 18 2 7
-5 21 -6 32 -2 11 4 30 4 43 -1 14 -5 22 -5 22 2 0 6 7 6 19 -1 14 -7 22 -7
26 0 4 7 11 7 18 2 7 -5 21 -6 32 -2 11 4 30 4 43 -1 14 -5 22 -5 22 2 0 6 7
6 19 -1 14 -7 22 -7 26 0 4 7 11 7 18 2 7 -5 21 -6 32 -2 11 4 30 4 43 -1 14
-5 22 -5 22 2 0 6 7 6 19 -1 14 -7 22 -7 26 0 4 6 10 8 13 6 4 -2 27 -7 51
-11 81 -12 211 -88 211 -124 0 -6 4 -11 10 -11 8 0 27 -35 45 -85 4 -11 9 -48
10 -83 4 -64 -19 -153 -47 -188 -46 -58 -129 -121 -165 -127 -10 -1 -22 -5
-28 -8 -5 -4 -20 -5 -32 -4 -13 1 -23 -2 -23 -6 0 -4 -13 -4 -30 1 -17 5 -30
5 -30 0 0 -5 -13 -5 -30 0 -18 5 -30 5 -30 0 0 -6 -10 -6 -25 0 -15 6 -26 6
-30 0 -4 -7 -13 -7 -24 0 -10 5 -21 6 -25 3 -8 -8 -105 -7 -113 1 -3 3 -14 1
-24 -4 -12 -7 -20 -7 -24 0 -4 6 -13 7 -24 1 -10 -6 -23 -6 -31 -1 -8 5 -21 5
-30 0 -9 -5 -22 -5 -30 0 -8 5 -21 5 -31 -1 -11 -6 -20 -5 -24 1 -4 6 -15 6
-30 0 -15 -6 -25 -6 -25 0 0 5 -12 5 -29 0 -15 -4 -34 -4 -42 0 -7 5 -20 5
-28 0 -9 -5 -23 -4 -33 1 -10 6 -19 5 -23 -1 -4 -6 -11 -8 -16 -4 -13 8 -79
11 -79 4 0 -7 -59 -5 -66 2 -3 4 -18 3 -33 -2 -16 -4 -34 -4 -42 0 -7 5 -18 6
-23 3 -12 -8 -106 -7 -113 1 -3 3 -14 1 -24 -4 -12 -7 -20 -7 -24 0 -4 7 -12
7 -25 0 -12 -6 -21 -7 -25 0 -4 6 -15 6 -30 0 -14 -5 -25 -6 -25 -2 0 4 -11 7
-25 7 -14 0 -25 -3 -25 -7 0 -4 -13 -3 -30 2 -18 5 -30 5 -30 0 0 -6 -10 -6
-25 0 -15 6 -26 6 -30 0 -4 -7 -13 -7 -24 0 -10 5 -21 6 -25 3 -8 -8 -105 -7
-113 1 -3 3 -14 1 -24 -4 -12 -7 -20 -7 -24 0 -4 6 -13 7 -24 1 -10 -6 -23 -6
-31 -1 -8 5 -21 5 -30 0 -9 -5 -22 -5 -30 0 -8 5 -21 5 -31 -1 -11 -6 -20 -5
-24 1 -4 6 -15 6 -30 0 -15 -6 -25 -6 -25 0 0 5 -12 5 -29 0 -15 -4 -34 -4
-42 0 -7 5 -20 5 -28 0 -9 -5 -23 -4 -33 1 -10 6 -19 5 -23 -1 -4 -6 -11 -8
-16 -4 -13 8 -79 11 -79 4 0 -4 -57 -4 -70 0 -11 4 -82 1 -87 -4 -3 -2 -16 -1
-29 4 -15 6 -26 6 -30 -1 -4 -8 -9 -8 -17 0 -7 7 -16 7 -29 0 -12 -6 -18 -6
-18 0 0 7 -8 7 -22 2 -13 -5 -32 -5 -43 -1 -11 4 -25 3 -32 -2 -7 -5 -14 -5
-18 2 -4 7 -12 7 -26 0 -12 -7 -19 -7 -19 -1 0 7 -8 7 -22 2 -13 -5 -32 -5
-43 -1 -11 4 -25 3 -32 -2 -7 -5 -14 -5 -18 2 -4 7 -12 7 -26 0 -12 -7 -19 -7
-19 -1 0 7 -8 7 -22 2 -13 -5 -32 -5 -43 -1 -11 4 -25 3 -32 -2 -7 -5 -14 -5
-18 2 -4 7 -12 7 -26 0 -12 -7 -25 -7 -36 -1 -11 6 -24 6 -35 0 -12 -6 -18 -6
-18 0 0 7 -9 7 -25 1 -15 -6 -27 -6 -30 0 -3 5 -11 7 -18 4 -21 -7 -107 -10
-107 -3 0 4 -12 4 -27 0 -16 -4 -40 -4 -55 0 -16 4 -28 5 -28 1 0 -4 -16 -7
-35 -7 -19 0 -35 3 -35 7 0 3 -12 3 -27 -1 -16 -4 -40 -4 -55 0 -16 4 -28 4
-28 -1 0 -6 -10 -6 -25 0 -16 6 -25 6 -25 0 0 -6 -9 -6 -24 0 -13 5 -26 7 -29
4 -8 -8 -87 -10 -87 -3 0 4 -12 4 -27 0 -16 -4 -40 -4 -55 0 -16 4 -28 5 -28
1 0 -4 -16 -7 -35 -7 -19 0 -35 3 -35 7 0 4 -13 3 -29 -2 -16 -4 -32 -6 -35
-3 -2 3 -20 6 -39 7 -84 6 -200 96 -239 186 -10 24 -20 66 -21 92 -1 26 -6 48
-10 48 -5 0 -5 5 -2 11 4 5 9 25 12 42 7 49 51 128 95 170 53 51 112 79 170
81 26 0 48 4 48 8 0 4 11 3 25 -2 14 -5 25 -6 25 -2z m-64 -1281 c20 8 414 9
414 1 0 -4 13 -3 30 2 17 5 32 5 35 0 3 -5 16 -5 30 0 15 6 27 6 30 0 3 -6 15
-6 30 0 15 6 27 6 30 0 3 -6 15 -6 30 0 15 6 27 6 30 0 3 -6 15 -6 30 0 15 6
27 6 30 0 3 -6 15 -6 30 0 15 6 27 6 30 0 3 -6 15 -6 30 0 15 6 27 6 30 0 3
-6 15 -6 30 0 15 6 27 6 30 0 3 -6 15 -6 30 0 15 6 27 6 30 0 3 -6 15 -6 30 0
15 6 27 6 30 0 3 -6 15 -6 30 0 15 6 27 6 30 0 3 -6 15 -6 30 0 15 6 27 6 30
0 3 -6 15 -6 30 0 15 6 27 6 30 0 3 -6 15 -6 30 0 15 6 27 6 30 0 3 -6 15 -6
30 0 15 6 27 6 30 0 3 -6 15 -6 30 0 15 6 27 6 30 0 3 -6 15 -6 30 0 15 6 27
6 30 0 3 -6 15 -6 30 0 15 6 27 6 30 0 3 -6 15 -6 30 0 13 5 26 6 29 2 3 -5
30 -5 61 -2 31 3 58 3 61 -2 3 -4 16 -3 29 2 15 6 27 6 30 0 3 -6 15 -6 30 0
15 6 27 6 30 0 3 -6 15 -6 30 0 15 6 27 6 30 0 3 -6 15 -6 30 0 15 6 27 6 30
0 3 -6 15 -6 30 0 15 6 27 6 30 0 3 -6 15 -6 30 0 15 6 27 6 30 0 3 -6 15 -6
30 0 15 6 27 6 30 0 3 -6 15 -6 30 0 15 6 27 6 30 0 3 -6 15 -6 30 0 15 6 27
6 30 0 3 -6 15 -6 30 0 15 6 27 6 30 0 3 -6 15 -6 30 0 15 6 27 6 30 0 3 -6
15 -6 30 0 15 6 27 6 30 0 3 -6 15 -6 30 0 15 6 27 6 30 0 3 -6 15 -6 30 0 15
6 27 6 30 0 3 -6 15 -6 30 0 15 6 27 6 30 0 3 -6 15 -6 30 0 15 6 27 6 30 0 3
-6 15 -6 29 0 13 5 27 6 30 3 7 -7 76 -10 76 -3 0 7 746 4 763 -3 8 -3 20 -1
27 3 8 5 22 4 31 -1 11 -6 20 -5 24 1 3 6 15 6 30 0 15 -6 27 -6 30 0 3 6 15
6 30 0 15 -6 25 -6 25 0 0 5 12 5 30 0 18 -5 32 -5 36 1 3 5 10 7 15 4 5 -3
32 -8 61 -10 98 -6 220 -83 257 -161 6 -13 16 -34 21 -46 6 -13 12 -43 15 -68
2 -25 4 -47 6 -50 1 -3 0 -9 -1 -15 -1 -5 -4 -23 -7 -40 -7 -45 -40 -109 -76
-147 -64 -69 -123 -96 -227 -104 -36 -2 -71 -6 -77 -9 -7 -2 -13 -1 -13 4 0 5
-18 5 -40 1 -22 -4 -40 -4 -40 0 0 4 -18 4 -40 0 -22 -4 -40 -4 -40 0 0 4 -18
4 -41 0 -22 -4 -56 -4 -75 0 -19 4 -36 4 -39 0 -3 -4 -19 -4 -37 -1 -18 4 -47
4 -64 0 -18 -3 -37 -3 -44 1 -7 4 -27 4 -45 0 -18 -4 -38 -4 -45 0 -7 4 -24 5
-38 1 -14 -4 -45 -4 -69 -1 -23 4 -47 4 -54 0 -6 -4 -26 -4 -45 0 -19 4 -36 4
-39 0 -3 -4 -19 -4 -37 -1 -18 4 -47 4 -64 0 -18 -3 -37 -3 -44 1 -7 4 -27 4
-45 0 -18 -4 -38 -4 -45 0 -7 4 -24 5 -38 1 -14 -4 -45 -4 -69 -1 -23 4 -47 4
-54 0 -6 -4 -26 -4 -45 0 -19 4 -36 4 -39 0 -3 -4 -19 -5 -37 -1 -18 4 -52 4
-75 1 -24 -4 -43 -4 -43 -1 0 7 -138 4 -157 -3 -7 -3 -13 -2 -13 3 0 5 -18 5
-40 1 -22 -4 -40 -4 -40 0 0 4 -18 4 -40 0 -22 -4 -40 -4 -40 0 0 4 -18 4 -40
0 -22 -4 -40 -4 -40 0 0 4 -18 4 -40 0 -22 -4 -40 -4 -40 0 0 4 -18 4 -40 0
-22 -4 -40 -4 -40 0 0 4 -18 4 -40 0 -23 -4 -40 -3 -40 2 0 5 -4 6 -10 3 -8
-5 -67 -7 -162 -4 -10 0 -43 -1 -73 -1 -30 -1 -59 1 -65 5 -5 3 -10 2 -10 -3
0 -5 -20 -6 -45 -2 -25 4 -47 5 -50 2 -6 -7 -105 -6 -111 1 -3 2 -20 1 -38 -3
-19 -4 -39 -4 -46 0 -6 4 -29 4 -51 0 -21 -4 -39 -4 -39 0 0 4 -18 4 -40 0
-22 -4 -43 -3 -46 1 -3 5 -9 7 -14 4 -5 -3 -53 -5 -107 -5 -135 1 -165 0 -174
-6 -4 -2 -10 0 -13 5 -3 4 -24 5 -46 1 -22 -4 -40 -4 -40 0 0 4 -18 4 -40 0
-22 -4 -42 -5 -44 -1 -2 3 -38 4 -80 1 -42 -3 -84 -2 -93 1 -9 3 -32 3 -52 -1
-20 -3 -53 -3 -73 1 -21 3 -38 3 -38 -2 0 -5 -6 -6 -12 -4 -7 3 -45 6 -83 8
-124 7 -215 66 -271 177 -25 48 -28 66 -27 140 1 155 79 262 226 310 28 10 53
14 55 9 2 -4 10 -5 18 -2z m-901 -3837 c4 7 12 7 23 1 10 -6 23 -6 34 0 10 6
19 5 23 -1 4 -7 13 -7 26 0 10 6 19 7 19 3 0 -4 11 -8 25 -8 14 0 25 2 25 5 0
7 165 4 185 -3 8 -4 15 -2 15 4 0 6 6 6 18 0 10 -5 24 -6 32 -1 8 5 21 5 31
-1 11 -6 20 -5 24 1 4 7 12 7 23 1 10 -6 23 -6 34 0 10 6 19 5 23 -1 4 -7 13
-7 26 0 10 6 19 7 19 3 0 -4 11 -8 25 -8 14 0 25 2 25 5 0 7 165 4 185 -3 8
-4 15 -2 15 4 0 6 6 6 18 0 10 -5 24 -6 32 -1 8 5 21 5 31 -1 11 -6 20 -5 24
1 4 7 12 7 23 1 10 -6 23 -6 34 0 10 6 19 5 23 -1 4 -7 13 -7 26 0 10 6 19 7
19 3 0 -4 11 -8 25 -8 14 0 25 2 25 5 0 7 165 4 185 -3 8 -4 15 -2 15 4 0 6 6
6 18 0 10 -5 24 -6 32 -1 8 5 21 5 31 -1 11 -6 20 -5 24 1 4 7 12 7 23 1 10
-6 23 -6 34 0 10 6 19 5 23 -1 4 -7 13 -7 26 0 10 6 19 7 19 3 0 -4 11 -8 25
-8 14 0 25 2 25 5 0 7 165 4 185 -3 8 -4 15 -2 15 4 0 6 6 6 18 0 10 -5 24 -6
32 -1 8 5 21 5 31 -1 11 -6 20 -5 24 1 4 7 12 7 23 1 10 -6 23 -6 34 0 10 6
19 5 23 -1 4 -7 13 -7 26 0 10 6 19 7 19 3 0 -4 11 -8 25 -8 14 0 25 2 25 5 0
7 91 2 98 -5 2 -2 13 0 23 5 12 7 20 7 24 0 4 -7 13 -7 26 0 10 6 19 7 19 3 0
-4 11 -8 25 -8 14 0 25 2 25 5 0 7 78 3 97 -4 7 -3 13 -1 13 4 0 6 9 6 23 2
22 -9 75 -7 84 2 3 3 16 1 29 -4 16 -6 24 -6 24 1 0 6 7 6 19 -1 14 -7 22 -7
26 0 4 7 11 7 18 2 7 -5 21 -6 32 -2 11 4 30 4 43 -1 14 -5 22 -5 22 2 0 6 7
6 19 -1 14 -7 22 -7 26 0 4 7 11 7 18 2 7 -5 21 -6 32 -2 11 4 30 4 43 -1 14
-5 22 -5 22 2 0 6 7 6 19 -1 14 -7 22 -7 26 0 4 7 11 7 18 2 7 -5 21 -6 32 -2
11 4 30 4 43 -1 14 -5 22 -5 22 2 0 6 7 6 19 -1 14 -7 22 -7 26 0 4 7 11 7 18
2 7 -5 21 -6 32 -2 11 4 30 4 43 -1 14 -5 22 -5 22 2 0 6 7 6 19 -1 14 -7 22
-7 26 0 4 7 11 7 18 2 7 -5 21 -6 32 -2 11 4 30 4 43 -1 14 -5 22 -5 22 2 0 6
7 6 19 -1 14 -7 22 -7 26 0 4 7 11 7 18 2 7 -5 21 -6 32 -2 11 4 30 4 43 -1
14 -5 22 -5 22 2 0 6 7 6 19 -1 14 -7 22 -7 26 0 4 7 11 7 18 2 7 -5 21 -6 32
-2 11 4 30 4 43 -1 14 -5 22 -5 22 2 0 6 7 6 19 -1 14 -7 22 -7 26 0 4 7 11 7
18 2 7 -5 21 -6 32 -2 11 4 30 4 43 -1 14 -5 22 -5 22 2 0 6 7 6 19 -1 14 -7
22 -7 26 0 4 7 11 7 18 2 7 -5 21 -6 32 -2 11 4 30 4 43 -1 14 -5 22 -5 22 2
0 6 7 6 19 -1 14 -7 22 -7 26 0 4 7 11 7 18 2 7 -5 21 -6 32 -2 11 4 30 4 43
-1 14 -5 22 -5 22 2 0 6 7 6 19 -1 14 -7 22 -7 26 0 4 7 11 7 18 2 7 -5 21 -6
32 -2 11 4 30 4 43 -1 14 -5 22 -5 22 2 0 6 7 6 19 -1 14 -7 22 -7 26 0 4 7
11 7 18 2 7 -5 21 -6 32 -2 11 4 30 4 43 -1 14 -5 22 -5 22 2 0 6 7 6 19 -1
14 -7 22 -7 26 0 4 7 11 7 18 2 7 -5 21 -6 32 -2 11 4 30 4 43 -1 14 -5 22 -5
22 2 0 6 7 6 19 -1 14 -7 22 -7 26 0 4 7 11 7 18 2 7 -5 21 -6 32 -2 11 4 30
4 43 -1 14 -5 22 -5 22 2 0 6 7 6 19 -1 14 -7 22 -7 26 0 4 7 11 7 18 2 7 -5
21 -6 32 -2 11 4 30 4 43 -1 14 -5 22 -5 22 2 0 6 7 6 19 -1 12 -6 22 -6 26
-1 5 9 42 7 53 -3 2 -3 13 -1 23 5 13 6 19 6 19 0 0 -7 9 -7 25 -1 16 6 25 6
25 0 0 -6 9 -6 23 -1 13 5 30 5 39 0 11 -6 19 -5 23 1 4 7 12 7 25 0 13 -7 21
-7 25 0 4 7 12 7 23 1 10 -6 23 -6 34 0 12 7 18 6 18 -1 0 -6 5 -8 11 -4 15 9
174 8 188 0 6 -4 11 -2 11 4 0 7 6 8 19 0 14 -7 22 -7 27 1 4 7 10 7 16 1 6
-6 17 -8 24 -5 8 3 14 -1 15 -8 3 -75 3 -139 -1 -139 -3 0 -5 -13 -5 -30 0
-16 2 -30 5 -30 3 0 5 -34 5 -75 0 -41 -3 -75 -7 -75 -4 0 -3 -13 2 -30 5 -18
5 -32 -1 -36 -5 -3 -6 -12 0 -21 5 -9 5 -29 1 -45 -5 -15 -5 -30 0 -33 5 -3 5
-16 0 -30 -6 -15 -6 -27 1 -30 5 -4 7 -11 4 -16 -8 -12 -12 -99 -5 -99 7 0 2
-102 -5 -108 -2 -3 0 -12 5 -21 5 -10 5 -23 0 -31 -5 -8 -5 -21 0 -30 5 -9 5
-22 0 -30 -5 -8 -5 -21 0 -30 5 -9 5 -22 0 -30 -5 -8 -5 -21 0 -30 5 -9 5 -22
0 -30 -5 -8 -5 -21 0 -30 5 -9 5 -22 0 -30 -5 -8 -5 -21 0 -30 5 -9 5 -22 0
-30 -5 -8 -5 -21 1 -31 6 -11 5 -20 -1 -24 -6 -3 -6 -15 0 -30 8 -22 6 -25
-23 -33 -18 -5 -33 -5 -35 -1 -2 4 -16 3 -33 -1 -16 -5 -29 -5 -29 0 0 4 -16
4 -35 0 -19 -4 -37 -4 -40 1 -3 4 -16 4 -29 -1 -12 -4 -29 -5 -36 0 -7 5 -24
4 -37 -1 -13 -5 -23 -5 -23 1 0 5 -12 5 -30 0 -17 -5 -30 -5 -30 0 0 5 -13 5
-30 0 -16 -5 -30 -5 -30 0 0 4 -16 4 -35 0 -19 -4 -37 -4 -40 1 -3 4 -16 4
-29 -1 -12 -4 -29 -5 -36 0 -7 4 -20 6 -27 3 -24 -9 -56 -10 -80 -1 -12 4 -25
3 -28 -2 -3 -6 -15 -6 -29 0 -13 5 -26 6 -30 3 -7 -7 -1335 -7 -1342 0 -4 3
-17 2 -30 -3 -14 -6 -26 -6 -29 0 -3 6 -15 6 -30 0 -15 -6 -27 -6 -30 0 -3 6
-15 6 -30 0 -15 -6 -27 -6 -30 0 -3 6 -15 6 -30 0 -15 -6 -27 -6 -30 0 -3 6
-15 6 -30 0 -15 -6 -27 -6 -30 0 -3 6 -15 6 -30 0 -15 -6 -27 -6 -30 0 -3 6
-15 6 -30 0 -15 -6 -27 -6 -30 0 -3 6 -15 6 -30 0 -15 -6 -27 -6 -30 0 -3 6
-15 6 -30 0 -15 -6 -27 -6 -30 0 -3 6 -15 6 -30 0 -15 -6 -27 -6 -30 0 -3 6
-15 6 -30 0 -15 -6 -27 -6 -30 0 -3 6 -15 6 -30 0 -15 -6 -27 -6 -30 0 -3 6
-15 6 -30 0 -15 -6 -27 -6 -30 0 -3 6 -15 6 -30 0 -15 -6 -27 -6 -30 0 -3 6
-15 6 -30 0 -15 -6 -27 -6 -30 0 -3 6 -15 6 -30 0 -15 -6 -27 -6 -30 0 -3 6
-15 6 -29 0 -13 -5 -27 -6 -30 -2 -8 8 -103 5 -116 -3 -6 -3 -10 -2 -10 4 0 6
-11 6 -30 1 -17 -5 -30 -5 -30 0 0 4 -16 4 -35 0 -19 -4 -37 -4 -40 1 -3 4
-16 4 -29 -1 -12 -4 -29 -5 -36 0 -7 5 -24 4 -37 -1 -13 -5 -23 -5 -23 1 0 5
-12 5 -30 0 -17 -5 -30 -5 -30 0 0 5 -13 5 -30 0 -17 -5 -30 -5 -30 0 0 4 -16
4 -35 0 -19 -4 -37 -4 -40 1 -3 4 -16 4 -29 -1 -12 -4 -29 -5 -36 0 -7 5 -24
4 -37 -1 -13 -5 -23 -5 -23 1 0 5 -12 5 -30 0 -17 -5 -30 -5 -30 0 0 5 -13 5
-30 0 -16 -5 -30 -5 -30 0 0 4 -16 4 -35 0 -19 -4 -37 -4 -40 1 -3 4 -16 4
-29 -1 -12 -4 -29 -5 -36 0 -7 5 -24 4 -37 -1 -13 -5 -23 -5 -23 1 0 5 -12 5
-30 0 -17 -5 -30 -5 -30 0 0 5 -13 5 -30 0 -16 -5 -30 -5 -30 0 0 4 -16 4 -35
0 -19 -4 -37 -4 -40 1 -3 4 -16 4 -29 -1 -12 -4 -29 -5 -36 0 -7 5 -23 5 -34
1 -23 -8 -56 -7 -80 2 -8 3 -18 2 -21 -3 -3 -6 -15 -6 -30 0 -15 6 -27 6 -30
0 -3 -6 -15 -6 -30 0 -15 6 -27 6 -30 0 -3 -6 -15 -6 -30 0 -15 6 -27 6 -30 0
-3 -6 -15 -6 -30 0 -15 6 -27 6 -30 0 -3 -6 -15 -6 -30 0 -15 6 -27 6 -30 0
-3 -6 -15 -6 -30 0 -15 6 -27 6 -30 0 -3 -6 -15 -6 -30 0 -15 6 -27 6 -30 0
-3 -6 -15 -6 -30 0 -15 6 -27 6 -30 0 -3 -6 -15 -6 -30 0 -15 6 -27 6 -30 0
-3 -6 -15 -6 -30 0 -15 6 -27 6 -30 0 -3 -6 -15 -6 -30 0 -15 6 -27 6 -30 0
-3 -6 -15 -6 -30 0 -15 6 -27 6 -30 0 -3 -6 -15 -6 -30 0 -15 6 -27 6 -30 0
-3 -6 -15 -6 -30 0 -15 6 -27 6 -30 0 -3 -6 -15 -6 -30 0 -15 6 -27 6 -30 0
-3 -6 -15 -6 -30 0 -15 6 -27 6 -30 0 -3 -6 -15 -6 -30 0 -15 6 -27 6 -30 0
-3 -6 -15 -6 -30 0 -15 6 -27 6 -30 0 -3 -6 -15 -6 -30 0 -15 6 -27 6 -30 0
-3 -6 -15 -6 -30 0 -15 6 -27 6 -30 -1 -4 -5 -11 -7 -16 -3 -6 3 -29 8 -52 10
-49 5 -102 12 -102 14 0 1 -7 3 -16 5 -25 5 -162 71 -189 91 -74 56 -158 155
-197 232 -24 45 -45 95 -48 110 -3 15 -7 38 -11 52 -3 14 -7 45 -9 70 -2 25
-4 47 -5 50 -1 3 -2 9 -1 14 1 5 4 32 6 60 16 180 124 364 275 465 25 17 51
31 58 31 6 0 12 3 12 8 0 7 107 49 151 57 13 3 48 8 78 10 30 3 57 7 59 10 3
2 13 0 23 -5 12 -7 20 -7 24 0z"/>
</g>
</svg>
