<svg width="940" height="326" viewBox="0 0 940 326" fill="none" xmlns="http://www.w3.org/2000/svg">
<path d="M11.9517 313.439L0 306.261V279.343L11.9517 285.923L23.3058 279.343V306.261L11.9517 313.439Z" fill="#0093D0"/>
<path d="M56.1729 313.439L44.8188 306.261V279.343L56.1729 285.923L68.1246 279.343V306.261L56.1729 313.439Z" fill="#0093D0"/>
<path d="M100.992 313.439L89.04 306.261V279.343L100.992 285.923L112.943 279.343V306.261L100.992 313.439Z" fill="#0093D0"/>
<path d="M145.213 313.439L133.859 306.261V279.343L145.213 285.923L157.165 279.343V306.261L145.213 313.439Z" fill="#0093D0"/>
<path d="M190.032 313.439L178.08 306.261V279.343L190.032 285.923L201.983 279.343V306.261L190.032 313.439Z" fill="#0093D0"/>
<path d="M323.891 313.439L311.939 306.261V279.343L323.891 285.923L335.842 279.343V306.261L323.891 313.439Z" fill="#0093D0"/>
<path d="M368.112 313.439L356.758 306.261V279.343L368.112 285.923L380.064 279.343V306.261L368.112 313.439Z" fill="#0093D0"/>
<path d="M412.931 313.439L400.979 306.261V279.343L412.931 285.923L424.882 279.343V306.261L412.931 313.439Z" fill="#0093D0"/>
<path d="M457.75 313.439L445.798 306.261V279.343L457.75 285.923L469.104 279.343V306.261L457.75 313.439Z" fill="#0093D0"/>
<path d="M501.971 313.439L490.019 306.261V279.343L501.971 285.923L513.922 279.343V306.261L501.971 313.439Z" fill="#0093D0"/>
<path d="M11.9517 257.211L0 250.631V223.116L11.9517 230.294L23.3058 223.116V250.631L11.9517 257.211Z" fill="#0093D0"/>
<path d="M56.1729 257.211L44.8188 250.631V223.116L56.1729 230.294L68.1246 223.116V250.631L56.1729 257.211Z" fill="#0093D0"/>
<path d="M100.992 257.211L89.04 250.631V223.116L100.992 230.294L112.943 223.116V250.631L100.992 257.211Z" fill="#0093D0"/>
<path d="M145.213 257.211L133.859 250.631V223.116L145.213 230.294L157.165 223.116V250.631L145.213 257.211Z" fill="#0093D0"/>
<path d="M190.032 257.211L178.08 250.631V223.116L190.032 230.294L201.983 223.116V250.631L190.032 257.211Z" fill="#0093D0"/>
<path d="M323.891 257.211L311.939 250.631V223.116L323.891 230.294L335.842 223.116V250.631L323.891 257.211Z" fill="#0093D0"/>
<path d="M368.112 257.211L356.758 250.631V223.116L368.112 230.294L380.064 223.116V250.631L368.112 257.211Z" fill="#0093D0"/>
<path d="M412.931 257.211L400.979 250.631V223.116L412.931 230.294L424.882 223.116V250.631L412.931 257.211Z" fill="#0093D0"/>
<path d="M457.75 257.211L445.798 250.631V223.116L457.75 230.294L469.104 223.116V250.631L457.75 257.211Z" fill="#0093D0"/>
<path d="M501.971 257.211L490.019 250.631V223.116L501.971 230.294L513.922 223.116V250.631L501.971 257.211Z" fill="#0093D0"/>
<path d="M11.9517 201.582L0 195.002V167.486L11.9517 174.066L23.3058 167.486V195.002L11.9517 201.582Z" fill="#0093D0"/>
<path d="M56.1729 201.582L44.8188 195.002V167.486L56.1729 174.066L68.1246 167.486V195.002L56.1729 201.582Z" fill="#0093D0"/>
<path d="M100.992 201.582L89.04 195.002V167.486L100.992 174.066L112.943 167.486V195.002L100.992 201.582Z" fill="#0093D0"/>
<path d="M145.213 201.582L133.859 195.002V167.486L145.213 174.066L157.165 167.486V195.002L145.213 201.582Z" fill="#0093D0"/>
<path d="M190.032 201.582L178.08 195.002V167.486L190.032 174.066L201.983 167.486V195.002L190.032 201.582Z" fill="#0093D0"/>
<path d="M234.851 201.582L222.899 195.002V167.486L234.851 174.066L246.205 167.486V195.002L234.851 201.582Z" fill="#0093D0"/>
<path d="M279.072 201.582L267.12 195.002V167.486L279.072 174.066L291.024 167.486V195.002L279.072 201.582Z" fill="#0093D0"/>
<path d="M323.891 201.582L311.939 195.002V167.486L323.891 174.066L335.842 167.486V195.002L323.891 201.582Z" fill="#0093D0"/>
<path d="M368.112 201.582L356.758 195.002V167.486L368.112 174.066L380.064 167.486V195.002L368.112 201.582Z" fill="#0093D0"/>
<path d="M412.931 201.582L400.979 195.002V167.486L412.931 174.066L424.882 167.486V195.002L412.931 201.582Z" fill="#0093D0"/>
<path d="M457.75 201.582L445.798 195.002V167.486L457.75 174.066L469.104 167.486V195.002L457.75 201.582Z" fill="#0093D0"/>
<path d="M501.971 201.582L490.019 195.002V167.486L501.971 174.066L513.922 167.486V195.002L501.971 201.582Z" fill="#0093D0"/>
<path d="M11.9517 145.952L0 138.774V111.857L11.9517 118.437L23.3058 111.857V138.774L11.9517 145.952Z" fill="#0093D0"/>
<path d="M56.1729 145.952L44.8188 138.774V111.857L56.1729 118.437L68.1246 111.857V138.774L56.1729 145.952Z" fill="#0093D0"/>
<path d="M100.992 145.952L89.04 138.774V111.857L100.992 118.437L112.943 111.857V138.774L100.992 145.952Z" fill="#0093D0"/>
<path d="M145.213 145.952L133.859 138.774V111.857L145.213 118.437L157.165 111.857V138.774L145.213 145.952Z" fill="#0093D0"/>
<path d="M190.032 145.952L178.08 138.774V111.857L190.032 118.437L201.983 111.857V138.774L190.032 145.952Z" fill="#0093D0"/>
<path d="M234.851 145.952L222.899 138.774V111.857L234.851 118.437L246.205 111.857V138.774L234.851 145.952Z" fill="#0093D0"/>
<path d="M279.072 145.952L267.12 138.774V111.857L279.072 118.437L291.024 111.857V138.774L279.072 145.952Z" fill="#0093D0"/>
<path d="M323.891 145.952L311.939 138.774V111.857L323.891 118.437L335.842 111.857V138.774L323.891 145.952Z" fill="#0093D0"/>
<path d="M368.112 145.952L356.758 138.774V111.857L368.112 118.437L380.064 111.857V138.774L368.112 145.952Z" fill="#0093D0"/>
<path d="M412.931 145.952L400.979 138.774V111.857L412.931 118.437L424.882 111.857V138.774L412.931 145.952Z" fill="#0093D0"/>
<path d="M457.75 145.952L445.798 138.774V111.857L457.75 118.437L469.104 111.857V138.774L457.75 145.952Z" fill="#0093D0"/>
<path d="M501.971 145.952L490.019 138.774V111.857L501.971 118.437L513.922 111.857V138.774L501.971 145.952Z" fill="#0093D0"/>
<path d="M190.032 89.7248L178.08 83.145V55.6294L190.032 62.2092L201.983 55.6294V83.145L190.032 89.7248Z" fill="#0093D0"/>
<path d="M234.851 89.7248L222.899 83.145V55.6294L234.851 62.2092L246.205 55.6294V83.145L234.851 89.7248Z" fill="#0093D0"/>
<path d="M279.072 89.7248L267.12 83.145V55.6294L279.072 62.2092L291.024 55.6294V83.145L279.072 89.7248Z" fill="#0093D0"/>
<path d="M323.891 89.7248L311.939 83.145V55.6294L323.891 62.2092L335.842 55.6294V83.145L323.891 89.7248Z" fill="#0093D0"/>
<path d="M234.851 34.0954L222.899 27.5156V0L234.851 6.57982L246.205 0V27.5156L234.851 34.0954Z" fill="#0093D0"/>
<path d="M279.072 34.0954L267.12 27.5156V0L279.072 6.57982L291.024 0V27.5156L279.072 34.0954Z" fill="#0093D0"/>
<path d="M608.938 147.149C608.938 151.934 607.146 154.925 604.158 157.317C601.17 159.71 596.987 160.308 591.608 160.308C589.816 160.308 587.425 160.308 585.633 159.71C583.242 159.112 582.047 159.112 580.254 158.514V153.13C580.254 153.13 580.852 153.728 581.449 153.728C582.047 153.728 583.242 154.327 584.437 154.925C585.633 155.523 586.828 155.523 588.023 156.121C589.218 156.121 591.011 156.719 592.206 156.719C593.401 156.719 595.194 156.719 596.389 156.121C597.584 156.121 598.779 155.523 599.975 154.925C601.17 154.327 601.767 153.728 602.365 152.532C602.963 151.336 603.56 150.139 603.56 148.345C603.56 147.149 603.56 145.354 602.963 144.756C602.365 143.56 601.767 142.962 601.17 141.765C600.572 141.167 599.377 139.971 598.182 139.373C596.987 138.774 596.389 138.176 595.194 137.578C593.999 136.98 592.206 135.784 590.413 135.185C588.62 134.587 587.425 133.391 585.633 132.195C584.437 130.998 582.645 129.802 582.047 128.606C580.852 127.409 580.852 125.615 580.852 123.82C580.852 119.633 582.047 116.642 585.035 114.848C588.023 113.053 591.608 111.857 595.791 111.857C596.987 111.857 598.182 111.857 599.377 111.857C600.572 111.857 601.767 112.455 602.365 112.455C603.56 112.455 604.158 113.053 605.353 113.053C605.95 113.053 606.548 113.651 607.146 113.651V118.437C606.548 118.437 605.353 117.839 602.963 117.24C600.572 116.642 598.182 116.044 595.194 116.044C592.804 116.044 590.413 116.642 588.62 117.839C586.828 119.035 586.23 120.829 586.23 123.222C586.23 124.418 586.23 125.017 586.828 126.213C587.425 126.811 588.023 127.409 588.62 128.007C589.218 128.606 590.413 129.204 591.011 129.802C592.206 130.4 592.804 130.998 593.999 131.596L599.377 133.989C600.572 134.587 601.767 135.185 602.963 135.784C604.158 136.382 605.353 137.578 606.548 138.176C607.743 139.373 608.341 140.569 608.938 141.765C608.938 143.56 608.938 145.354 608.938 147.149Z" fill="black"/>
<path d="M643.001 143.56H619.695C619.695 145.354 620.292 147.747 621.488 149.541C622.683 151.336 624.476 153.13 626.866 154.925C627.463 155.523 628.061 155.523 629.256 156.121C630.451 156.121 631.647 156.719 633.439 156.719C634.634 156.719 636.427 156.719 638.22 156.121C640.013 156.121 641.208 154.925 643.001 154.327V158.514C641.208 159.71 638.818 160.308 637.025 160.308C634.634 160.308 632.842 160.906 630.451 160.308C628.061 160.308 626.268 159.71 624.476 159.112C622.683 158.514 621.488 157.317 620.292 156.121C618.5 154.925 617.305 152.532 616.707 150.738C615.512 148.345 615.512 145.952 615.512 142.962C615.512 138.176 616.707 133.989 619.695 130.998C622.683 128.007 626.268 126.213 631.647 126.213C634.037 126.213 635.83 126.811 637.025 127.409C638.818 128.007 640.013 129.204 641.208 130.998C642.403 132.195 643.001 133.989 643.598 135.784C644.196 137.578 644.196 139.373 644.196 140.569V143.56H643.001ZM637.622 139.373C637.622 138.176 637.622 137.578 637.025 136.382C637.025 135.185 636.427 133.989 635.83 133.391C635.232 132.195 634.634 131.596 633.439 130.998C632.244 130.4 631.049 129.802 629.854 129.802C626.866 129.802 624.476 130.4 622.683 132.195C620.89 133.989 619.695 136.382 619.097 139.373H637.622Z" fill="black"/>
<path d="M679.453 143.56C679.453 148.943 678.258 152.532 675.27 156.121C672.282 159.112 668.697 160.906 663.916 160.906C659.135 160.906 655.55 159.71 652.562 156.719C649.574 153.728 648.379 149.541 648.379 144.158C648.379 141.765 648.976 139.372 649.574 137.578C650.172 135.783 651.367 133.391 652.562 132.195C653.757 130.4 655.55 129.204 657.343 128.606C659.135 127.409 661.526 127.409 663.916 127.409C668.697 127.409 672.88 129.204 675.27 132.195C678.258 133.989 679.453 138.176 679.453 143.56ZM674.075 143.56C674.075 141.765 674.075 139.971 673.477 138.774C672.88 136.98 672.282 135.783 671.685 134.587C671.087 133.391 669.892 132.195 668.697 131.596C667.502 130.998 665.709 130.4 663.916 130.4C662.123 130.4 660.331 130.998 659.135 131.596C657.94 132.195 656.745 133.391 656.147 134.587C655.55 135.783 654.952 137.578 654.355 138.774C653.757 140.569 653.757 142.363 653.757 144.158C653.757 145.952 653.757 147.747 654.355 148.943C654.952 150.738 655.55 151.934 656.147 153.13C656.745 154.327 657.94 155.523 659.135 156.121C660.331 156.719 662.123 157.317 663.916 157.317C665.709 157.317 667.502 156.719 668.697 156.121C669.892 155.523 671.087 154.327 671.685 153.13C672.282 151.934 672.88 150.738 673.477 148.943C674.075 146.55 674.075 144.756 674.075 143.56Z" fill="black"/>
<path d="M714.113 159.71H709.332V151.934C708.735 154.327 707.54 156.121 705.149 157.916C703.357 159.71 700.369 160.308 696.783 160.308C695.588 160.308 693.795 160.308 692.6 159.71C691.405 159.112 690.21 158.514 689.612 157.317C689.015 156.719 687.819 155.523 687.819 154.327C687.222 153.13 687.222 151.934 687.222 150.139V126.811H692.003V147.747C692.003 148.943 692.003 149.541 692.003 150.738C692.003 151.934 692.6 152.532 693.198 153.728C693.795 154.327 694.393 154.925 695.588 155.523C696.783 156.121 697.381 156.121 699.174 156.121C701.564 156.121 703.954 154.925 705.747 153.13C707.54 151.336 708.735 148.943 709.332 145.952C709.332 145.354 709.333 144.158 709.93 143.56C709.93 142.961 709.93 141.765 709.93 141.167V127.409H714.711V159.71H714.113Z" fill="black"/>
<path d="M729.053 111.857H724.272V159.71H729.053V111.857Z" fill="black"/>
<path d="M626.268 236.275H621.488V194.404L607.146 236.275H601.767L587.425 194.404V236.275H582.645V188.422H590.413L604.158 229.097L618.5 188.422H626.268V236.275Z" fill="black"/>
<path d="M663.318 220.125H640.013C640.013 221.919 640.61 224.312 641.805 226.106C643.001 227.901 644.793 229.695 647.184 231.49C647.781 232.088 648.379 232.088 649.574 232.686C650.769 232.686 651.964 233.284 653.757 233.284C654.952 233.284 656.745 233.284 658.538 232.686C660.331 232.088 661.526 231.49 663.318 230.892V235.079C661.526 236.275 659.135 236.873 657.343 236.873C654.952 237.472 653.16 237.472 650.769 236.873C648.379 236.873 646.586 236.275 644.793 235.677C643.001 235.079 641.805 233.883 640.61 232.686C639.415 231.49 637.622 229.097 637.025 227.303C635.83 224.91 635.83 222.517 635.83 219.527C635.83 214.741 637.025 210.554 640.013 207.563C643.001 204.572 646.586 202.778 651.964 202.778C654.355 202.778 656.147 203.376 657.343 203.974C659.135 204.572 660.331 205.769 661.526 207.563C662.721 208.76 663.318 210.554 663.916 212.349C664.514 214.143 664.514 215.938 664.514 217.732V220.125H663.318ZM657.94 216.536C657.94 215.339 657.94 214.741 657.343 213.545C657.343 212.349 656.745 211.152 656.147 210.554C655.55 209.358 654.952 208.76 653.757 208.161C652.562 207.563 651.367 206.965 650.172 206.965C647.184 206.965 644.793 207.563 643.001 209.358C641.208 211.152 640.013 213.545 639.415 216.536H657.94Z" fill="black"/>
<path d="M687.819 207.563H678.258V225.508C678.258 226.705 678.258 227.303 678.258 228.499C678.258 229.695 678.856 230.294 678.856 230.892C679.453 231.49 680.051 232.088 680.648 232.686C681.246 233.284 682.441 233.284 683.636 233.284C684.234 233.284 684.832 233.284 686.027 233.284C686.624 233.284 687.222 233.284 687.819 232.686V236.873C687.222 236.873 686.027 236.873 685.429 236.873C684.831 236.873 683.636 236.873 683.039 236.873C680.051 236.873 677.66 236.275 675.868 235.079C674.075 233.883 673.477 231.49 673.477 229.097V208.161H667.502V203.974H673.477V195.6L678.258 192.609V203.974H687.819V207.563V207.563Z" fill="black"/>
<path d="M712.918 207.563C711.723 207.563 709.93 207.563 708.735 208.161C707.54 208.76 705.747 208.76 704.552 209.956C703.357 210.554 702.161 211.75 701.564 212.947C700.369 214.143 699.771 215.339 699.771 217.134C699.771 218.33 699.174 218.928 699.174 220.125C699.174 221.321 699.174 221.919 699.174 223.116V236.873H694.393V203.376H699.174V210.554C700.369 208.161 702.161 205.769 704.552 204.572C706.942 203.376 709.93 202.778 712.918 202.778V207.563V207.563Z" fill="black"/>
<path d="M747.578 220.125C747.578 225.508 746.383 229.097 743.395 232.686C740.407 235.677 736.821 237.472 732.041 237.472C727.26 237.472 723.674 236.275 720.687 233.284C717.699 230.294 716.503 226.106 716.503 220.723C716.503 218.33 717.101 215.938 717.699 214.143C718.296 211.75 719.491 209.956 720.687 208.76C721.882 206.965 723.674 205.769 725.467 205.171C727.26 203.974 729.65 203.974 732.041 203.974C736.821 203.974 741.004 205.769 743.395 208.76C746.383 210.554 747.578 214.741 747.578 220.125ZM742.2 220.125C742.2 218.33 742.2 216.536 741.602 215.339C741.004 213.545 740.407 212.349 739.809 211.152C739.212 209.956 738.017 208.76 736.821 208.161C735.626 207.563 733.833 206.965 732.041 206.965C730.248 206.965 728.455 207.563 727.26 208.161C726.065 208.76 724.87 209.956 724.272 211.152C723.674 212.349 723.077 213.545 722.479 215.339C721.882 217.134 721.882 218.928 721.882 220.723C721.882 222.517 721.882 224.312 722.479 225.508C723.077 227.303 723.674 228.499 724.272 229.695C724.87 230.892 726.065 232.088 727.26 232.686C728.455 233.284 730.248 233.883 732.041 233.883C733.833 233.883 735.626 233.284 736.821 232.686C738.017 232.088 739.212 230.892 739.809 229.695C740.407 228.499 741.004 227.303 741.602 225.508C742.2 223.116 742.2 221.321 742.2 220.125Z" fill="black"/>
<path d="M782.835 220.125C782.835 222.517 782.835 224.312 782.238 226.705C781.64 228.499 781.043 230.294 779.847 232.088C778.652 233.883 777.457 235.079 775.664 235.677C773.872 236.873 772.079 236.873 769.688 236.873C767.298 236.873 764.908 236.275 763.713 235.079C762.517 233.883 761.322 232.088 760.725 230.294V248.837H755.944V203.376H760.725V209.358C760.725 208.76 761.322 207.563 761.92 206.965C762.517 206.367 763.115 205.171 763.713 204.572C764.31 203.974 765.505 203.376 766.701 202.778C767.896 202.18 769.091 202.18 770.286 202.18C772.079 202.18 773.872 202.778 775.664 203.376C777.457 203.974 778.652 205.171 779.847 206.965C781.043 208.161 782.238 210.554 782.835 212.349C782.835 214.741 782.835 217.134 782.835 220.125ZM777.457 220.125C777.457 218.33 777.457 216.536 776.859 214.741C776.262 212.947 775.664 211.75 775.067 210.554C774.469 209.358 773.274 208.161 772.079 207.563C770.884 206.965 769.689 206.367 768.493 206.367C766.103 206.367 763.713 207.563 761.92 209.956C760.127 212.349 759.53 215.339 759.53 219.527C759.53 220.723 759.53 222.517 760.127 223.714C760.127 225.508 760.725 226.705 761.92 227.901C762.517 229.097 763.713 230.294 764.908 231.49C766.103 232.088 767.298 232.686 769.091 232.686C770.286 232.686 772.079 232.088 772.676 231.49C773.872 230.892 774.469 229.695 775.067 228.499C775.664 227.303 776.262 226.106 776.859 224.312C777.457 223.116 777.457 221.919 777.457 220.125Z" fill="black"/>
<path d="M819.288 220.125C819.288 225.508 818.093 229.097 815.105 232.686C812.117 235.677 808.531 237.472 803.751 237.472C798.97 237.472 795.385 236.275 792.397 233.284C789.409 230.294 788.214 226.106 788.214 220.723C788.214 218.33 788.214 215.938 789.409 214.143C790.006 211.75 791.202 209.956 792.397 208.76C793.592 206.965 795.385 205.769 797.177 205.171C798.97 203.974 801.36 203.974 803.751 203.974C808.531 203.974 812.715 205.769 815.105 208.76C818.093 210.554 819.288 214.741 819.288 220.125ZM813.91 220.125C813.91 218.33 813.91 216.536 813.312 215.339C812.715 213.545 812.117 212.349 811.519 211.152C810.922 209.956 809.727 208.76 808.531 208.161C807.336 207.563 805.544 206.965 803.751 206.965C801.958 206.965 800.165 207.563 798.97 208.161C797.775 208.76 796.58 209.956 795.982 211.152C795.385 212.349 794.787 213.545 794.189 215.339C793.592 217.134 793.592 218.928 793.592 220.723C793.592 222.517 793.592 224.312 794.189 225.508C794.787 227.303 795.385 228.499 795.982 229.695C796.58 230.892 797.775 232.088 798.97 232.686C800.165 233.284 801.958 233.883 803.751 233.883C805.544 233.883 807.336 233.284 808.531 232.686C809.727 232.088 810.922 230.892 811.519 229.695C812.117 228.499 812.715 227.303 813.312 225.508C813.312 223.116 813.91 221.321 813.91 220.125Z" fill="black"/>
<path d="M831.837 188.422H827.057V236.275H831.837V188.422Z" fill="black"/>
<path d="M847.374 195.6H840.801V189.02H847.374V195.6ZM847.374 236.873H841.996V203.376H847.374V236.873Z" fill="black"/>
<path d="M873.668 207.563H864.107V225.508C864.107 226.705 864.107 227.303 864.107 228.499C864.107 229.695 864.704 230.294 864.704 230.892C865.302 231.49 865.9 232.088 866.497 232.686C867.095 233.284 868.29 233.284 869.485 233.284C870.083 233.284 870.68 233.284 871.875 233.284C872.473 233.284 873.071 233.284 873.668 232.686V236.873C873.071 236.873 871.875 236.873 871.278 236.873C870.68 236.873 869.485 236.873 868.887 236.873C865.9 236.873 863.509 236.275 861.716 235.079C859.924 233.883 859.326 231.49 859.326 229.097V208.161H853.35V203.974H859.326V195.6L864.107 192.609V203.974H873.668V207.563V207.563Z" fill="black"/>
<path d="M904.742 236.275H899.962V232.088C899.962 232.686 899.364 232.686 898.767 233.284C898.169 233.883 897.572 234.481 896.376 235.079C895.181 235.677 893.986 236.275 892.791 236.275C891.596 236.873 889.803 236.873 888.608 236.873C887.413 236.873 886.217 236.873 885.022 236.275C883.827 235.677 883.229 235.079 882.034 234.481C881.437 233.883 880.242 232.686 880.242 231.49C879.644 230.294 879.644 229.097 879.644 227.901C879.644 225.508 880.242 223.116 882.034 221.321C883.827 219.527 885.62 218.33 887.413 217.732C888.608 217.134 889.803 217.134 891.596 217.134C892.791 217.134 894.584 217.134 895.779 217.134C896.974 217.134 898.169 217.134 899.364 217.134C900.559 217.134 901.157 217.134 901.755 217.134V214.143C901.755 213.545 901.755 212.947 901.755 211.75C901.755 211.152 901.157 209.956 900.559 209.358C899.962 208.76 899.364 208.161 898.169 207.563C896.974 206.965 895.779 206.965 893.986 206.965C892.193 206.965 890.4 207.563 888.608 208.161C887.413 209.358 886.815 210.554 886.815 212.349H880.839C880.839 211.152 880.839 209.956 881.437 208.76C882.034 207.563 882.632 206.965 883.827 205.769C885.022 205.171 886.217 203.974 888.01 203.376C889.803 202.778 891.596 202.778 893.388 202.778C897.572 202.778 900.559 203.974 902.95 205.769C904.743 208.161 905.938 210.554 905.938 213.545V236.275H904.742ZM899.364 223.714V220.125C898.169 220.125 896.974 220.125 895.181 220.125C893.388 220.125 892.193 220.125 890.4 220.723C889.803 220.723 888.608 221.321 888.01 221.321C887.413 221.919 886.217 221.919 885.62 222.517C885.022 223.116 884.425 223.714 883.827 224.312C883.229 224.91 883.229 226.106 883.229 226.705C883.229 229.097 883.827 230.294 885.022 230.892C886.217 231.49 888.01 232.088 889.205 232.088C889.803 232.088 890.4 232.088 891.596 231.49C892.193 231.49 893.388 230.892 893.986 230.294C894.584 229.695 895.779 229.097 896.376 228.499C896.974 227.901 897.572 227.303 898.169 226.106C898.169 225.508 898.767 224.91 898.767 224.312C899.364 224.91 899.364 224.312 899.364 223.714Z" fill="black"/>
<path d="M940 236.275H935.219V217.732C935.219 216.536 935.219 215.339 935.219 214.143C935.219 212.947 934.622 211.75 934.622 210.554C934.024 209.358 933.427 208.76 932.829 208.161C931.634 207.563 930.439 206.965 929.243 206.965C926.853 206.965 925.06 207.563 923.268 209.956C921.475 211.75 920.28 214.741 919.085 217.732C919.085 218.928 918.487 219.527 918.487 220.125C918.487 220.723 918.487 221.919 918.487 222.517V236.275H913.706V203.376H918.487V211.152C918.487 210.554 919.084 209.956 919.682 208.76C920.28 207.563 920.877 206.965 921.475 205.769C922.67 204.572 923.268 203.974 925.06 203.376C926.256 202.778 928.048 202.18 929.841 202.18C932.829 202.18 935.219 203.376 937.012 205.171C938.805 206.965 940 209.358 940 212.349V236.275Z" fill="black"/>
<path d="M608.938 312.84H582.645V265.585H588.023V308.653H608.938V312.84Z" fill="black"/>
<path d="M619.695 272.165H613.121V265.585H619.695V272.165ZM619.695 313.439H614.317V280.539H619.695V313.439Z" fill="black"/>
<path d="M657.94 296.69C657.94 302.672 656.745 306.859 653.757 309.251C650.769 312.242 647.184 313.439 643.001 313.439C640.013 313.439 637.622 312.84 635.83 312.242C634.037 311.046 632.842 309.85 631.647 308.653C630.451 306.859 629.854 305.662 629.854 303.868C629.256 302.073 629.256 300.279 629.256 298.484V264.987H634.037V285.325C634.037 284.727 634.634 284.128 635.232 283.53C635.83 282.932 636.427 282.334 637.025 281.736C637.622 281.138 638.818 280.539 640.013 279.941C641.208 279.343 642.403 279.343 644.196 279.343C647.781 279.343 650.172 279.941 652.562 281.736C654.952 283.53 656.147 285.923 657.343 289.512C657.343 290.708 657.94 291.905 657.94 293.101C657.94 294.297 657.94 295.494 657.94 296.69ZM652.562 297.288C652.562 296.69 652.562 295.494 652.562 294.895C652.562 294.297 652.562 293.101 651.964 292.503C651.964 290.11 650.769 288.316 649.574 286.521C648.379 284.727 645.989 284.128 643.598 284.128C642.403 284.128 640.61 284.727 639.415 285.325C638.22 286.521 637.025 287.717 636.427 288.914C635.83 290.11 635.232 291.905 634.634 293.699C634.037 295.494 634.037 297.288 634.037 299.083C634.037 300.279 634.037 302.073 634.634 303.27C634.634 304.466 635.232 305.662 636.427 306.859C637.025 308.055 638.22 308.653 639.415 309.251C640.61 309.85 641.805 310.448 643.598 310.448C646.586 310.448 648.976 309.251 650.769 306.859C651.367 303.868 652.562 300.877 652.562 297.288Z" fill="black"/>
<path d="M684.234 284.128C683.039 284.128 681.246 284.128 680.051 284.727C678.856 285.325 677.063 285.325 675.868 286.521C674.673 287.119 673.477 288.316 672.88 289.512C671.685 290.708 671.087 291.905 671.087 293.699C671.087 294.297 670.489 295.494 670.489 296.69C670.489 297.886 670.489 298.484 670.489 299.681V313.439H665.709V280.539H670.489V287.119C671.685 284.727 673.477 282.334 675.868 281.138C678.258 279.941 681.246 279.343 684.234 279.343V284.128V284.128Z" fill="black"/>
<path d="M713.516 312.84H708.735V308.653C708.735 309.251 708.137 309.251 707.54 309.85C706.942 310.448 706.345 311.046 705.149 311.644C703.954 312.242 702.759 312.84 701.564 312.84C700.369 313.439 698.576 313.439 697.381 313.439C696.186 313.439 694.99 313.439 693.795 312.84C692.6 312.242 692.002 311.644 690.807 311.046C690.21 310.448 689.015 309.251 688.417 308.055C687.819 306.859 687.819 305.662 687.819 304.466C687.819 302.073 688.417 299.681 690.21 297.886C691.405 296.092 693.198 294.895 695.588 294.297C696.783 293.699 697.978 293.699 699.771 293.699C700.966 293.699 702.759 293.699 703.954 293.699C705.149 293.699 706.345 293.699 707.54 293.699C708.735 293.699 709.333 293.699 709.93 293.699V290.708C709.93 290.11 709.93 289.512 709.93 288.914C709.93 288.316 709.332 287.119 708.735 286.521C708.137 285.923 707.54 285.325 706.345 284.727C705.149 284.128 703.954 284.128 702.759 284.128C700.369 284.128 699.174 284.727 697.381 285.325C696.186 286.521 695.588 287.717 695.588 289.512H689.612C689.612 288.316 690.21 287.119 690.21 285.923C690.807 284.727 691.405 283.53 692.6 282.932C693.795 282.334 694.99 281.138 696.783 280.539C698.576 279.941 700.369 279.941 702.161 279.941C706.345 279.941 709.332 281.138 711.723 282.932C713.516 285.325 714.711 287.717 714.711 290.708V312.84H713.516ZM708.735 300.279V296.69C707.54 296.69 706.345 296.69 704.552 296.69C702.759 296.69 701.564 296.69 699.771 297.288C699.174 297.288 697.978 297.886 697.381 297.886C696.783 298.484 695.588 298.484 694.99 299.083C694.393 299.681 693.795 300.279 693.198 300.877C692.6 301.475 692.6 302.672 692.6 303.27C692.6 305.662 693.198 306.859 694.393 307.457C695.588 308.055 697.381 308.653 698.576 308.653C699.174 308.653 699.771 308.653 700.966 308.055C701.564 308.055 702.759 307.457 703.357 306.859C703.954 306.261 705.149 305.662 705.747 305.064C706.345 304.466 706.942 303.868 707.54 302.672C707.54 302.073 708.137 301.475 708.137 300.877C708.735 301.475 708.735 300.877 708.735 300.279Z" fill="black"/>
<path d="M741.602 284.128C740.407 284.128 738.614 284.128 737.419 284.727C736.224 285.325 734.431 285.325 733.236 286.521C732.041 287.119 730.845 288.316 730.248 289.512C729.65 290.708 728.455 291.905 728.455 293.699C728.455 294.297 727.858 295.494 727.858 296.69C727.858 297.886 727.858 298.484 727.858 299.681V313.439H723.077V280.539H727.858V287.119C729.053 284.727 730.845 282.334 733.236 281.138C735.626 279.941 738.614 279.343 741.602 279.343V284.128V284.128Z" fill="black"/>
<path d="M772.079 279.941L755.944 326H751.163L755.346 312.242L742.2 279.941H747.578L757.737 305.662L767.298 279.941H772.079Z" fill="black"/>
</svg>
