<svg width="1276" height="336" viewBox="0 0 1276 336" fill="none" xmlns="http://www.w3.org/2000/svg">
<g clip-path="url(#clip0_10_486)">
<path d="M318.692 323.053L306.363 315.655V287.912L318.692 294.694L331.02 287.912V315.655L318.692 323.053Z" fill="#0093D0"/>
<path d="M364.924 323.053L352.595 315.655V287.912L364.924 294.694L376.636 287.912V315.655L364.924 323.053Z" fill="#0093D0"/>
<path d="M410.539 323.053L398.211 315.655V287.912L410.539 294.694L422.868 287.912V315.655L410.539 323.053Z" fill="#0093D0"/>
<path d="M456.771 323.053L444.442 315.655V287.912L456.771 294.694L469.099 287.912V315.655L456.771 323.053Z" fill="#0093D0"/>
<path d="M502.386 323.053L490.674 315.655V287.912L502.386 294.694L514.715 287.912V315.655L502.386 323.053Z" fill="#0093D0"/>
<path d="M640.466 323.053L628.137 315.655V287.912L640.466 294.694L652.794 287.912V315.655L640.466 323.053Z" fill="#0093D0"/>
<path d="M686.698 323.053L674.369 315.655V287.912L686.698 294.694L698.41 287.912V315.655L686.698 323.053Z" fill="#0093D0"/>
<path d="M732.313 323.053L720.601 315.655V287.912L732.313 294.694L744.642 287.912V315.655L732.313 323.053Z" fill="#0093D0"/>
<path d="M778.545 323.053L766.216 315.655V287.912L778.545 294.694L790.873 287.912V315.655L778.545 323.053Z" fill="#0093D0"/>
<path d="M824.16 323.053L812.448 315.655V287.912L824.16 294.694L836.489 287.912V315.655L824.16 323.053Z" fill="#0093D0"/>
<path d="M318.692 265.101L306.363 258.319V229.96L318.692 237.358L331.02 229.96V258.319L318.692 265.101Z" fill="#0093D0"/>
<path d="M364.924 265.101L352.595 258.319V229.96L364.924 237.358L376.636 229.96V258.319L364.924 265.101Z" fill="#0093D0"/>
<path d="M410.539 265.101L398.211 258.319V229.96L410.539 237.358L422.868 229.96V258.319L410.539 265.101Z" fill="#0093D0"/>
<path d="M456.771 265.101L444.442 258.319V229.96L456.771 237.358L469.099 229.96V258.319L456.771 265.101Z" fill="#0093D0"/>
<path d="M502.386 265.101L490.674 258.319V229.96L502.386 237.358L514.715 229.96V258.319L502.386 265.101Z" fill="#0093D0"/>
<path d="M640.466 265.101L628.137 258.319V229.96L640.466 237.358L652.794 229.96V258.319L640.466 265.101Z" fill="#0093D0"/>
<path d="M686.698 265.101L674.369 258.319V229.96L686.698 237.358L698.41 229.96V258.319L686.698 265.101Z" fill="#0093D0"/>
<path d="M732.313 265.101L720.601 258.319V229.96L732.313 237.358L744.642 229.96V258.319L732.313 265.101Z" fill="#0093D0"/>
<path d="M778.545 265.101L766.216 258.319V229.96L778.545 237.358L790.873 229.96V258.319L778.545 265.101Z" fill="#0093D0"/>
<path d="M824.16 265.101L812.448 258.319V229.96L824.16 237.358L836.489 229.96V258.319L824.16 265.101Z" fill="#0093D0"/>
<path d="M318.692 207.765L306.363 200.984V172.624L318.692 179.406L331.02 172.624V200.984L318.692 207.765Z" fill="#0093D0"/>
<path d="M364.924 207.765L352.595 200.984V172.624L364.924 179.406L376.636 172.624V200.984L364.924 207.765Z" fill="#0093D0"/>
<path d="M410.539 207.765L398.211 200.984V172.624L410.539 179.406L422.868 172.624V200.984L410.539 207.765Z" fill="#0093D0"/>
<path d="M456.771 207.765L444.442 200.984V172.624L456.771 179.406L469.099 172.624V200.984L456.771 207.765Z" fill="#0093D0"/>
<path d="M502.386 207.765L490.674 200.984V172.624L502.386 179.406L514.715 172.624V200.984L502.386 207.765Z" fill="#0093D0"/>
<path d="M548.618 207.765L536.29 200.984V172.624L548.618 179.406L560.947 172.624V200.984L548.618 207.765Z" fill="#0093D0"/>
<path d="M594.85 207.765L582.522 200.984V172.624L594.85 179.406L606.562 172.624V200.984L594.85 207.765Z" fill="#0093D0"/>
<path d="M640.466 207.765L628.137 200.984V172.624L640.466 179.406L652.794 172.624V200.984L640.466 207.765Z" fill="#0093D0"/>
<path d="M686.698 207.765L674.369 200.984V172.624L686.698 179.406L698.41 172.624V200.984L686.698 207.765Z" fill="#0093D0"/>
<path d="M732.313 207.765L720.601 200.984V172.624L732.313 179.406L744.642 172.624V200.984L732.313 207.765Z" fill="#0093D0"/>
<path d="M778.545 207.765L766.216 200.984V172.624L778.545 179.406L790.873 172.624V200.984L778.545 207.765Z" fill="#0093D0"/>
<path d="M824.16 207.765L812.448 200.984V172.624L824.16 179.406L836.489 172.624V200.984L824.16 207.765Z" fill="#0093D0"/>
<path d="M318.692 150.429L306.363 143.031V115.288L318.692 122.07L331.02 115.288V143.031L318.692 150.429Z" fill="#0093D0"/>
<path d="M364.924 150.429L352.595 143.031V115.288L364.924 122.07L376.636 115.288V143.031L364.924 150.429Z" fill="#0093D0"/>
<path d="M410.539 150.429L398.211 143.031V115.288L410.539 122.07L422.868 115.288V143.031L410.539 150.429Z" fill="#0093D0"/>
<path d="M456.771 150.429L444.442 143.031V115.288L456.771 122.07L469.099 115.288V143.031L456.771 150.429Z" fill="#0093D0"/>
<path d="M502.386 150.429L490.674 143.031V115.288L502.386 122.07L514.715 115.288V143.031L502.386 150.429Z" fill="#0093D0"/>
<path d="M548.618 150.429L536.29 143.031V115.288L548.618 122.07L560.947 115.288V143.031L548.618 150.429Z" fill="#0093D0"/>
<path d="M594.85 150.429L582.522 143.031V115.288L594.85 122.07L606.562 115.288V143.031L594.85 150.429Z" fill="#0093D0"/>
<path d="M640.466 150.429L628.137 143.031V115.288L640.466 122.07L652.794 115.288V143.031L640.466 150.429Z" fill="#0093D0"/>
<path d="M686.698 150.429L674.369 143.031V115.288L686.698 122.07L698.41 115.288V143.031L686.698 150.429Z" fill="#0093D0"/>
<path d="M732.313 150.429L720.601 143.031V115.288L732.313 122.07L744.642 115.288V143.031L732.313 150.429Z" fill="#0093D0"/>
<path d="M778.545 150.429L766.216 143.031V115.288L778.545 122.07L790.873 115.288V143.031L778.545 150.429Z" fill="#0093D0"/>
<path d="M824.16 150.429L812.448 143.031V115.288L824.16 122.07L836.489 115.288V143.031L824.16 150.429Z" fill="#0093D0"/>
<path d="M502.386 92.4771L490.674 85.6954V57.3358L502.386 64.1175L514.715 57.3358V85.6954L502.386 92.4771Z" fill="#0093D0"/>
<path d="M548.618 92.4771L536.29 85.6954V57.3358L548.618 64.1175L560.947 57.3358V85.6954L548.618 92.4771Z" fill="#0093D0"/>
<path d="M594.85 92.4771L582.522 85.6954V57.3358L594.85 64.1175L606.562 57.3358V85.6954L594.85 92.4771Z" fill="#0093D0"/>
<path d="M640.466 92.4771L628.137 85.6954V57.3358L640.466 64.1175L652.794 57.3358V85.6954L640.466 92.4771Z" fill="#0093D0"/>
<path d="M548.618 35.1413L536.29 28.3596V0L548.618 6.78165L560.947 0V28.3596L548.618 35.1413Z" fill="#0093D0"/>
<path d="M594.85 35.1413L582.522 28.3596V0L594.85 6.78165L606.562 0V28.3596L594.85 35.1413Z" fill="#0093D0"/>
<path d="M133.764 167.692L128.833 172.624L109.107 152.895C106.642 157.827 103.559 162.143 99.8609 165.226C96.1623 168.308 93.0802 170.774 89.9981 172.624L85.6831 167.075C89.3817 165.226 92.4638 162.76 94.9295 160.294C97.3952 157.827 99.8609 154.745 101.094 152.279C102.943 149.196 104.176 146.73 104.792 143.648C105.409 140.565 106.025 137.483 106.025 135.016V122.07H113.422V132.55C113.422 135.016 113.422 136.866 112.806 139.332C112.806 141.182 112.189 143.648 111.573 145.497L133.764 167.692ZM157.188 199.75H150.408V147.347H128.833V140.565H150.408V113.438H157.188V199.75Z" fill="#004A8D"/>
<path d="M249.652 160.294H212.667V168.925H231.159V188.653H195.407V196.051H233.625V203.45H188.01V183.105H223.762V175.706H187.393V169.541H205.886V160.294H169.517V154.128H250.269V160.294H249.652ZM230.543 131.317C230.543 133.783 229.926 136.25 228.694 138.716C227.461 140.565 225.612 142.415 223.762 144.264C221.913 145.497 219.447 146.73 216.982 147.347C213.899 147.963 211.434 147.963 208.352 147.963C205.269 147.963 202.804 147.347 199.722 146.73C197.256 146.114 194.79 144.881 192.941 143.648C191.092 142.415 189.242 140.565 188.01 138.716C186.777 136.866 186.16 134.4 186.16 131.317C186.16 128.851 186.777 126.385 188.01 124.536C189.242 122.686 190.475 120.837 192.941 118.987C194.79 117.754 197.256 116.521 199.722 115.288C202.187 114.672 205.269 114.055 208.352 114.055C211.434 114.055 214.516 114.672 216.982 115.288C219.447 115.905 221.913 117.138 223.762 118.371C225.612 119.604 227.461 121.453 228.694 123.919C229.926 125.769 230.543 128.235 230.543 131.317ZM222.529 130.701C222.529 127.618 221.297 124.536 218.214 122.686C215.132 120.837 212.05 119.604 207.735 119.604C204.037 119.604 200.338 120.837 197.872 122.686C195.407 124.536 193.557 127.002 193.557 130.701C193.557 134.4 194.79 136.866 197.872 138.716C200.955 140.565 204.037 141.182 207.735 141.182C209.584 141.182 211.434 141.182 213.283 140.565C215.132 139.949 216.365 139.332 218.214 138.716C219.447 138.099 220.68 136.866 221.297 135.017C222.529 134.4 222.529 133.167 222.529 130.701Z" fill="#004A8D"/>
<path d="M80.7517 308.873H0V302.092H36.3691V284.829H43.7662V302.092H80.7517V308.873V308.873ZM62.2589 282.363H16.0271V244.139H61.6425V250.921H22.8077V275.582H61.6425V282.363H62.2589Z" fill="#004A8D"/>
<path d="M131.298 288.528L126.367 293.461L106.641 273.732C104.176 278.664 101.094 282.98 97.3951 286.062C93.6965 289.145 90.6144 292.228 87.5323 293.461L83.2173 287.912C86.9158 286.062 89.998 283.596 92.4637 281.13C94.9294 278.664 97.3951 276.198 98.6279 273.116C100.477 270.033 101.71 267.567 102.326 264.484C102.943 261.402 103.559 258.319 103.559 255.853V242.906H110.956V253.387C110.956 255.853 110.956 257.703 110.34 260.169C109.724 262.018 109.724 264.484 109.107 266.334L131.298 288.528ZM154.723 319.971H147.942V267.567H126.367V260.785H147.942V234.275H154.723V319.971Z" fill="#004A8D"/>
<path d="M223.146 284.213C220.68 284.829 218.831 284.829 216.365 285.446C213.9 286.062 211.434 286.062 208.352 286.062C205.27 286.062 202.187 286.679 197.872 286.679C194.174 286.679 189.243 286.679 183.695 286.679H166.435V279.897H183.695V260.785H191.092V279.897C192.941 279.897 194.79 279.897 197.872 279.897C200.955 279.897 203.42 279.897 206.502 279.281C209.585 279.281 212.667 278.664 215.749 278.664C218.831 278.664 221.297 278.048 223.146 277.431V284.213ZM211.434 241.673C211.434 244.756 211.434 247.839 211.434 250.921C211.434 253.387 210.817 256.47 210.817 258.936C210.817 261.402 210.201 263.868 209.585 265.717C208.968 268.184 208.352 270.033 207.735 272.499H200.338C201.571 269.417 202.187 265.717 202.804 261.402C203.42 257.086 203.42 252.771 204.037 247.839H173.215V241.673H211.434ZM235.474 323.053H189.859V295.31H197.256V316.272H235.474V323.053ZM249.652 266.334H234.242V297.16H226.844V234.275H234.242V259.552H249.652V266.334Z" fill="#004A8D"/>
<path d="M935.117 151.662C935.117 156.595 933.268 159.677 930.186 162.143C927.103 164.609 922.788 165.226 917.241 165.226C915.391 165.226 912.926 165.226 911.076 164.609C908.611 163.993 907.378 163.993 905.528 163.376V157.828C905.528 157.828 906.145 158.444 906.761 158.444C907.378 158.444 908.611 159.061 909.844 159.677C911.076 160.294 912.309 160.294 913.542 160.91C914.775 160.91 916.624 161.527 917.857 161.527C919.09 161.527 920.939 161.527 922.172 160.91C923.405 160.91 924.638 160.294 925.871 159.677C927.103 159.061 927.72 158.444 928.336 157.211C928.953 155.978 929.569 154.745 929.569 152.895C929.569 151.662 929.569 149.813 928.953 149.196C928.336 147.963 927.72 147.347 927.103 146.114C926.487 145.497 925.254 144.264 924.021 143.648C922.788 143.031 922.172 142.415 920.939 141.798C919.706 141.182 917.857 139.949 916.008 139.332C914.158 138.716 912.926 137.483 911.076 136.25C909.843 135.017 907.994 133.783 907.378 132.55C906.145 131.317 906.145 129.468 906.145 127.618C906.145 123.303 907.378 120.22 910.46 118.371C913.542 116.521 917.241 115.288 921.556 115.288C922.788 115.288 924.021 115.288 925.254 115.288C926.487 115.288 927.72 115.905 928.336 115.905C929.569 115.905 930.186 116.521 931.418 116.521C932.035 116.521 932.651 117.138 933.268 117.138V122.07C932.651 122.07 931.418 121.453 928.953 120.837C926.487 120.22 924.021 119.604 920.939 119.604C918.473 119.604 916.008 120.22 914.158 121.453C912.309 122.686 911.693 124.536 911.693 127.002C911.693 128.235 911.693 128.851 912.309 129.468C912.926 130.084 913.542 130.701 914.158 131.317C914.775 131.934 916.008 132.55 916.624 133.167C917.857 133.783 918.473 134.4 919.706 135.017L925.254 137.483C926.487 138.099 927.72 138.716 928.953 139.332C930.186 139.949 931.418 141.182 932.651 141.798C933.884 143.031 934.501 144.264 935.117 145.497C934.501 147.963 935.117 149.813 935.117 151.662Z" fill="black"/>
<path d="M969.637 147.963H945.596C945.596 149.813 946.213 152.279 947.445 154.129C948.678 155.978 950.528 157.828 952.993 159.677C953.61 160.294 954.226 160.294 955.459 160.91C956.692 160.91 957.925 161.527 959.774 161.527C961.007 161.527 962.856 161.527 964.705 160.91C966.555 160.91 967.787 159.677 969.637 159.061V163.376C967.787 164.609 965.322 165.226 963.472 165.226C961.007 165.226 959.157 165.842 956.692 165.226C954.226 165.226 952.377 164.609 950.528 163.993C948.678 163.376 947.445 162.143 946.213 160.91C944.363 159.677 943.13 157.211 942.514 155.362C941.281 152.895 941.281 150.429 941.281 147.347C941.281 142.415 942.514 138.099 945.596 135.017C948.678 131.934 952.377 130.084 957.925 130.084C960.39 130.084 962.24 130.701 963.472 131.317C965.322 131.934 966.555 133.167 967.787 135.017C969.02 136.25 969.637 138.099 970.253 139.949C970.87 141.798 970.87 143.648 970.87 144.881V147.963H969.637ZM964.089 143.648C964.089 142.415 964.089 141.798 963.472 140.565C963.472 139.332 962.856 138.099 962.24 137.483C961.623 136.25 961.007 135.633 959.774 135.017C958.541 134.4 957.308 133.784 956.075 133.784C952.993 133.784 950.527 134.4 948.678 136.25C946.829 138.099 945.596 140.565 944.98 143.648H964.089Z" fill="black"/>
<path d="M1007.86 147.963C1007.86 153.512 1006.62 157.211 1003.54 160.91C1000.46 163.993 996.759 165.842 991.828 165.842C986.897 165.842 983.198 164.609 980.116 161.527C977.034 158.444 975.801 154.128 975.801 148.58C975.801 146.114 976.417 143.648 977.034 141.798C977.65 139.949 978.883 137.483 980.116 136.25C981.349 134.4 983.198 133.167 985.047 132.55C986.897 131.317 989.362 131.317 991.828 131.317C996.759 131.317 1001.07 133.167 1003.54 136.25C1006.01 138.099 1007.86 142.415 1007.86 147.963ZM1002.31 147.963C1002.31 146.114 1002.31 144.264 1001.69 143.031C1001.07 141.182 1000.46 139.949 999.842 138.716C999.225 137.483 997.992 136.249 996.759 135.633C995.527 135.016 993.677 134.4 991.828 134.4C989.979 134.4 988.13 135.016 986.897 135.633C985.664 136.249 984.431 137.483 983.815 138.716C983.198 139.949 982.582 141.798 981.965 143.031C981.349 144.881 981.349 146.73 981.349 148.58C981.349 150.429 981.349 152.279 981.965 153.512C982.582 155.361 983.198 156.594 983.815 157.827C984.431 159.061 985.664 160.294 986.897 160.91C988.13 161.527 989.979 162.143 991.828 162.143C993.677 162.143 995.527 161.527 996.759 160.91C997.992 160.294 999.225 159.061 999.842 157.827C1000.46 156.594 1001.07 155.361 1001.69 153.512C1001.69 151.046 1002.31 149.196 1002.31 147.963Z" fill="black"/>
<path d="M1043.61 164.609H1038.68V156.595C1038.06 159.061 1036.83 160.91 1034.36 162.76C1032.51 164.609 1029.43 165.226 1025.73 165.226C1024.5 165.226 1022.65 165.226 1021.42 164.609C1020.18 163.993 1018.95 163.376 1018.33 162.143C1017.72 161.527 1016.49 160.294 1016.49 159.061C1015.87 157.828 1015.87 156.595 1015.87 154.745V130.701H1020.8V152.279C1020.8 153.512 1020.8 154.128 1020.8 155.361C1020.8 156.595 1021.42 157.211 1022.03 158.444C1022.65 159.061 1023.27 159.677 1024.5 160.294C1025.73 160.91 1026.35 160.91 1028.2 160.91C1030.66 160.91 1033.13 159.677 1034.98 157.828C1036.83 155.978 1038.06 153.512 1038.68 150.429C1038.68 149.813 1038.68 148.58 1039.29 147.963C1039.29 147.347 1039.29 146.114 1039.29 145.497V131.317H1044.22V164.609H1043.61Z" fill="black"/>
<path d="M1059.02 115.288H1054.09V164.609H1059.02V115.288Z" fill="black"/>
<path d="M952.377 243.523H947.445V200.367L932.651 243.523H927.103L912.309 200.367V243.523H907.378V194.202H915.391L930.185 236.125L944.363 194.202H952.377V243.523Z" fill="black"/>
<path d="M991.212 226.877H967.171C967.171 228.727 967.787 231.193 969.02 233.042C970.253 234.892 972.102 236.741 974.568 238.591C975.185 239.207 975.801 239.207 977.034 239.824C978.267 239.824 979.499 240.44 981.349 240.44C982.582 240.44 984.431 240.44 986.28 239.824C988.129 239.207 989.362 238.591 991.212 237.974V242.29C989.362 243.523 986.897 244.139 985.047 244.139C982.582 244.756 980.732 244.756 978.267 244.139C975.801 244.139 973.952 243.523 972.102 242.906C970.253 242.29 969.02 241.057 967.787 239.824C966.555 238.591 964.705 236.125 964.089 234.275C962.856 231.809 962.856 229.343 962.856 226.261C962.856 221.328 964.089 217.013 967.171 213.93C970.253 210.848 973.952 208.998 979.499 208.998C981.965 208.998 983.814 209.615 985.047 210.231C986.897 210.848 988.129 212.081 989.362 213.93C990.595 215.163 991.212 217.013 991.828 218.862C992.444 220.712 992.444 222.561 992.444 224.411V226.877H991.212ZM985.664 223.178C985.664 221.945 985.664 221.328 985.047 220.095C985.047 218.862 984.431 217.629 983.814 217.013C983.198 215.78 982.582 215.163 981.349 214.547C980.116 213.93 978.883 213.314 977.65 213.314C974.568 213.314 972.102 213.93 970.253 215.78C968.404 217.629 967.171 220.095 966.555 223.178H985.664Z" fill="black"/>
<path d="M1015.87 213.93H1006.01V232.426C1006.01 233.659 1006.01 234.275 1006.01 235.508C1006.01 236.741 1006.62 237.358 1006.62 237.974C1007.24 238.591 1007.86 239.207 1008.47 239.824C1009.09 240.44 1010.32 240.44 1011.55 240.44C1012.17 240.44 1012.79 240.44 1014.02 240.44C1014.64 240.44 1015.25 240.44 1015.87 239.824V244.139C1015.25 244.139 1014.02 244.139 1013.4 244.139C1012.79 244.139 1011.55 244.139 1010.94 244.139C1007.86 244.139 1005.39 243.523 1003.54 242.29C1001.69 241.057 1001.07 238.591 1001.07 236.125V214.547H994.91V210.231H1001.07V201.6L1006.01 198.517V210.231H1015.87V213.93V213.93Z" fill="black"/>
<path d="M1042.37 213.93C1041.14 213.93 1039.29 213.93 1038.06 214.547C1036.83 215.163 1034.98 215.163 1033.74 216.396C1032.51 217.013 1031.28 218.246 1030.66 219.479C1029.43 220.712 1028.81 221.945 1028.81 223.794C1028.81 225.028 1028.2 225.644 1028.2 226.877C1028.2 228.11 1028.2 229.343 1028.2 229.96V244.139H1023.27V209.615H1028.2V217.013C1029.43 214.547 1031.28 212.081 1033.74 210.848C1036.21 209.615 1039.29 208.998 1042.37 208.998V213.93V213.93Z" fill="black"/>
<path d="M1077.51 226.877C1077.51 232.426 1076.28 236.125 1073.2 239.824C1070.11 242.906 1066.42 244.756 1061.48 244.756C1056.55 244.756 1052.85 243.523 1049.77 240.44C1046.69 237.358 1045.46 233.042 1045.46 227.494C1045.46 225.028 1046.07 222.561 1046.69 220.712C1047.31 218.246 1048.54 216.396 1049.77 215.163C1051 213.314 1052.85 212.081 1054.7 211.464C1056.55 210.231 1059.02 210.231 1061.48 210.231C1066.42 210.231 1070.73 212.081 1073.2 215.163C1076.28 217.013 1077.51 221.328 1077.51 226.877ZM1071.96 226.877C1071.96 225.028 1071.96 223.178 1071.35 221.945C1070.73 220.095 1070.11 218.862 1069.5 217.629C1068.88 216.396 1067.65 215.163 1066.42 214.547C1065.18 213.93 1063.33 213.314 1061.48 213.314C1059.63 213.314 1057.79 213.93 1056.55 214.547C1055.32 215.163 1054.09 216.396 1053.47 217.629C1052.85 218.862 1052.24 220.095 1051.62 221.945C1051 223.795 1051 225.644 1051 227.494C1051 229.343 1051 231.193 1051.62 232.426C1052.24 234.275 1052.85 235.508 1053.47 236.741C1054.09 237.974 1055.32 239.207 1056.55 239.824C1057.79 240.44 1059.63 241.057 1061.48 241.057C1063.33 241.057 1065.18 240.44 1066.42 239.824C1067.65 239.207 1068.88 237.974 1069.5 236.741C1070.11 235.508 1070.73 234.275 1071.35 232.426C1071.96 229.96 1071.96 228.11 1071.96 226.877Z" fill="black"/>
<path d="M1114.5 226.877C1114.5 229.343 1114.5 231.193 1113.88 233.659C1113.26 235.508 1112.65 237.358 1111.41 239.207C1110.18 241.057 1108.95 242.29 1107.1 242.906C1105.25 244.139 1103.4 244.139 1100.94 244.139C1098.47 244.139 1096 243.523 1094.77 242.29C1093.54 241.057 1092.31 239.207 1091.69 237.358V256.47H1086.76V209.615H1091.69V215.78C1091.69 215.163 1092.31 213.93 1092.92 213.314C1093.54 212.697 1094.15 211.464 1094.77 210.848C1095.39 210.231 1096.62 209.615 1097.85 208.998C1099.09 208.382 1100.32 208.382 1101.55 208.382C1103.4 208.382 1105.25 208.998 1107.1 209.615C1108.95 210.231 1110.18 211.464 1111.41 213.314C1112.65 214.547 1113.88 217.013 1114.5 218.862C1113.88 221.328 1114.5 223.794 1114.5 226.877ZM1108.95 226.877C1108.95 225.027 1108.95 223.178 1108.33 221.328C1107.72 219.479 1107.1 218.246 1106.48 217.013C1105.87 215.78 1104.63 214.547 1103.4 213.93C1102.17 213.314 1100.94 212.697 1099.7 212.697C1097.24 212.697 1094.77 213.93 1092.92 216.396C1091.07 218.862 1090.46 221.945 1090.46 226.261C1090.46 227.494 1090.46 229.343 1091.07 230.576C1091.07 232.426 1091.69 233.659 1092.92 234.892C1093.54 236.125 1094.77 237.358 1096 238.591C1097.24 239.207 1098.47 239.824 1100.32 239.824C1101.55 239.824 1103.4 239.207 1104.02 238.591C1105.25 237.974 1105.87 236.741 1106.48 235.508C1107.1 234.275 1107.72 233.042 1108.33 231.193C1108.95 229.96 1108.95 228.727 1108.95 226.877Z" fill="black"/>
<path d="M1151.48 226.877C1151.48 232.426 1150.25 236.125 1147.17 239.824C1144.09 242.906 1140.39 244.756 1135.46 244.756C1130.52 244.756 1126.83 243.523 1123.74 240.44C1120.66 237.358 1119.43 233.042 1119.43 227.494C1119.43 225.028 1119.43 222.561 1120.66 220.712C1121.28 218.246 1122.51 216.396 1123.74 215.163C1124.98 213.314 1126.83 212.081 1128.67 211.464C1130.52 210.231 1132.99 210.231 1135.46 210.231C1140.39 210.231 1144.7 212.081 1147.17 215.163C1150.25 217.013 1151.48 221.328 1151.48 226.877ZM1145.93 226.877C1145.93 225.028 1145.93 223.178 1145.32 221.945C1144.7 220.095 1144.09 218.862 1143.47 217.629C1142.85 216.396 1141.62 215.163 1140.39 214.547C1139.15 213.93 1137.3 213.314 1135.46 213.314C1133.61 213.314 1131.76 213.93 1130.52 214.547C1129.29 215.163 1128.06 216.396 1127.44 217.629C1126.83 218.862 1126.21 220.095 1125.59 221.945C1124.98 223.795 1124.98 225.644 1124.98 227.494C1124.98 229.343 1124.98 231.193 1125.59 232.426C1126.21 234.275 1126.83 235.508 1127.44 236.741C1128.06 237.974 1129.29 239.207 1130.52 239.824C1131.76 240.44 1133.61 241.057 1135.46 241.057C1137.3 241.057 1139.15 240.44 1140.39 239.824C1141.62 239.207 1142.85 237.974 1143.47 236.741C1144.09 235.508 1144.7 234.275 1145.32 232.426C1145.93 229.96 1145.93 228.11 1145.93 226.877Z" fill="black"/>
<path d="M1164.43 194.202H1159.5V243.523H1164.43V194.202Z" fill="black"/>
<path d="M1181.07 201.6H1174.91V194.818H1181.07V201.6ZM1180.45 244.139H1174.91V209.615H1180.45V244.139Z" fill="black"/>
<path d="M1207.58 213.93H1197.71V232.426C1197.71 233.659 1197.71 234.275 1197.71 235.508C1197.71 236.741 1198.33 237.358 1198.33 237.974C1198.95 238.591 1199.56 239.207 1200.18 239.824C1200.8 240.44 1202.03 240.44 1203.26 240.44C1203.88 240.44 1204.49 240.44 1205.73 240.44C1206.34 240.44 1206.96 240.44 1207.58 239.824V244.139C1206.96 244.139 1205.73 244.139 1205.11 244.139C1204.49 244.139 1203.26 244.139 1202.65 244.139C1199.56 244.139 1197.1 243.523 1195.25 242.29C1193.4 241.057 1192.78 238.591 1192.78 236.125V214.547H1186.62V210.231H1192.78V201.6L1197.71 198.517V210.231H1207.58V213.93V213.93Z" fill="black"/>
<path d="M1239.63 243.523H1234.7V239.207C1234.7 239.824 1234.08 239.824 1233.47 240.44C1232.85 241.057 1232.23 241.673 1231 242.29C1229.77 242.906 1228.54 243.523 1227.3 243.523C1226.07 244.139 1224.22 244.139 1222.99 244.139C1221.75 244.139 1220.52 244.139 1219.29 243.523C1218.06 242.906 1217.44 242.29 1216.21 241.673C1215.59 241.057 1214.36 239.824 1214.36 238.591C1213.74 237.358 1213.74 236.125 1213.74 234.892C1213.74 232.426 1214.36 229.96 1216.21 228.11C1218.06 226.26 1219.91 225.027 1221.75 224.411C1222.99 223.794 1224.22 223.794 1226.07 223.794C1227.3 223.794 1229.15 223.794 1230.38 223.794C1231.62 223.794 1232.85 223.794 1234.08 223.794C1235.32 223.794 1235.93 223.794 1236.55 223.794V220.095C1236.55 219.479 1236.55 218.862 1236.55 217.629C1236.55 217.013 1235.93 215.78 1235.32 215.163C1234.7 214.547 1234.08 213.93 1232.85 213.314C1231.62 212.697 1230.38 212.697 1229.15 212.697C1226.69 212.697 1225.45 213.314 1223.6 213.93C1222.37 215.163 1221.75 216.396 1221.75 218.246H1215.59C1215.59 217.013 1215.59 215.78 1216.21 214.547C1216.82 213.314 1217.44 212.081 1218.67 211.464C1219.91 210.848 1221.14 209.615 1222.99 208.998C1224.84 208.382 1226.69 208.382 1228.54 208.382C1232.85 208.382 1235.93 209.615 1238.4 211.464C1240.25 213.93 1241.48 216.396 1241.48 219.479V243.523H1239.63ZM1234.7 230.576V226.877C1233.47 226.877 1232.23 226.877 1230.38 226.877C1228.54 226.877 1227.3 226.877 1225.45 227.494C1224.84 227.494 1223.6 228.11 1222.99 228.11C1222.37 228.727 1221.14 228.727 1220.52 229.343C1219.91 229.96 1219.29 230.576 1218.67 231.193C1218.06 231.809 1218.06 233.042 1218.06 233.659C1218.06 236.125 1218.67 237.358 1219.91 237.974C1221.14 238.591 1222.99 239.207 1224.22 239.207C1224.84 239.207 1225.45 239.207 1226.69 238.591C1227.3 238.591 1228.54 237.974 1229.15 237.358C1229.77 236.741 1231 236.125 1231.62 235.508C1232.23 234.892 1232.85 234.275 1233.47 233.042C1233.47 232.426 1234.08 231.809 1234.08 231.193C1234.08 231.809 1234.7 231.193 1234.7 230.576Z" fill="black"/>
<path d="M1276 243.523H1271.07V224.411C1271.07 223.178 1271.07 221.945 1271.07 220.712C1271.07 219.479 1270.45 218.246 1270.45 217.013C1269.84 215.78 1269.22 215.163 1268.6 214.547C1267.37 213.93 1266.14 213.314 1264.9 213.314C1262.44 213.314 1260.59 213.93 1258.74 216.396C1256.89 218.246 1255.66 221.328 1254.43 224.411C1254.43 225.644 1253.81 226.26 1253.81 226.877C1253.81 227.494 1253.81 228.727 1253.81 229.343V243.523H1248.88V209.615H1253.81V217.629C1253.81 217.013 1254.43 216.396 1255.04 215.163C1255.66 213.93 1256.27 213.314 1257.51 212.081C1258.74 210.848 1259.36 210.231 1261.21 209.615C1262.44 208.998 1264.29 208.382 1266.14 208.382C1269.22 208.382 1271.69 209.615 1273.53 211.464C1275.38 213.314 1276.62 215.78 1276.62 218.862V243.523H1276Z" fill="black"/>
<path d="M935.117 322.437H907.378V273.732H912.926V318.121H935.117V322.437Z" fill="black"/>
<path d="M946.213 280.514H939.432V273.732H946.213V280.514ZM945.596 323.053H940.048V289.145H945.596V323.053Z" fill="black"/>
<path d="M985.047 305.791C985.047 311.956 983.815 316.272 980.732 318.738C977.65 321.82 973.952 323.053 969.637 323.053C966.555 323.053 964.089 322.437 962.24 321.82C960.39 320.587 959.157 319.354 957.925 318.121C956.692 316.272 956.075 315.039 956.075 313.189C955.459 311.339 955.459 309.49 955.459 307.64V273.116H960.39V294.077C960.39 293.461 961.007 292.844 961.623 292.228C962.24 291.611 962.856 290.994 963.473 290.378C964.089 289.761 965.322 289.145 966.555 288.528C967.787 287.912 969.02 287.912 970.87 287.912C974.568 287.912 977.034 288.528 979.499 290.378C981.965 292.228 983.198 294.694 984.431 298.393C984.431 299.626 985.047 300.859 985.047 302.092C985.047 303.325 985.047 304.558 985.047 305.791ZM979.499 306.407C979.499 305.791 979.499 304.558 979.499 303.941C979.499 303.325 979.5 302.092 978.883 301.475C978.883 299.009 977.65 297.16 976.417 295.31C975.185 293.461 972.719 292.844 970.253 292.844C969.02 292.844 967.171 293.461 965.938 294.077C964.705 295.31 963.472 296.543 962.856 297.776C962.24 299.009 961.623 300.859 961.007 302.708C960.39 304.558 960.39 306.407 960.39 308.257C960.39 309.49 960.39 311.339 961.007 312.572C961.623 313.806 961.623 315.039 962.856 316.272C963.472 317.505 964.705 318.121 965.938 318.738C967.171 319.354 968.404 319.971 970.253 319.971C973.335 319.971 975.801 318.738 977.65 316.272C978.883 313.189 979.499 310.106 979.499 306.407Z" fill="black"/>
<path d="M1012.17 292.844C1010.94 292.844 1009.09 292.844 1007.86 293.46C1006.62 294.077 1004.77 294.077 1003.54 295.31C1002.31 295.927 1001.07 297.16 1000.46 298.393C999.225 299.626 998.609 300.859 998.609 302.708C998.609 303.941 997.992 304.558 997.992 305.791C997.992 307.024 997.992 307.64 997.992 308.873V323.053H993.061V289.145H997.992V295.927C999.225 293.46 1001.07 290.994 1003.54 289.761C1006.01 288.528 1009.09 287.912 1012.17 287.912V292.844V292.844Z" fill="black"/>
<path d="M1042.99 322.437H1038.06V318.121C1038.06 318.738 1037.44 318.738 1036.83 319.354C1036.21 319.971 1035.59 320.587 1034.36 321.204C1033.13 321.82 1031.9 322.437 1030.66 322.437C1029.43 323.053 1027.58 323.053 1026.35 323.053C1025.11 323.053 1023.88 323.053 1022.65 322.437C1021.42 321.82 1020.8 321.204 1019.57 320.587C1018.95 319.971 1017.72 318.738 1017.1 317.505C1016.49 316.271 1016.48 315.038 1016.48 313.805C1016.48 311.339 1017.1 308.873 1018.95 307.024C1020.18 305.174 1022.03 303.941 1024.5 303.325C1025.73 302.708 1026.96 302.708 1028.81 302.708C1030.05 302.708 1031.9 302.708 1033.13 302.708C1034.36 302.708 1035.59 302.708 1036.83 302.708C1038.06 302.708 1038.68 302.708 1039.29 302.708V299.626C1039.29 299.009 1039.29 298.393 1039.29 297.16C1039.29 296.543 1038.68 295.31 1038.06 294.694C1037.44 294.077 1036.83 293.46 1035.59 292.844C1034.36 292.227 1033.13 292.227 1031.9 292.227C1029.43 292.227 1028.2 292.844 1026.35 293.46C1025.11 294.694 1024.5 295.927 1024.5 297.776H1018.33C1018.33 296.543 1018.95 295.31 1018.95 294.077C1019.57 292.844 1020.18 291.611 1021.42 290.994C1022.65 290.378 1023.88 289.145 1025.73 288.528C1027.58 287.912 1029.43 287.912 1031.28 287.912C1035.59 287.912 1038.68 289.145 1041.14 290.994C1042.99 293.46 1044.22 295.927 1044.22 299.009V322.437H1042.99ZM1037.44 309.49V305.791C1036.21 305.791 1034.98 305.791 1033.13 305.791C1031.28 305.791 1030.05 305.791 1028.2 306.407C1027.58 306.407 1026.35 307.024 1025.73 307.024C1025.11 307.64 1023.88 307.64 1023.27 308.257C1022.65 308.873 1022.03 309.49 1021.42 310.106C1020.8 310.723 1020.8 311.956 1020.8 312.572C1020.8 315.038 1021.42 316.272 1022.65 316.888C1023.88 317.505 1025.73 318.121 1026.96 318.121C1027.58 318.121 1028.2 318.121 1029.43 317.505C1030.05 317.505 1031.28 316.888 1031.9 316.271C1032.51 315.655 1033.74 315.038 1034.36 314.422C1034.98 313.805 1035.59 313.189 1036.21 311.956C1036.21 311.339 1036.83 310.723 1036.83 310.106C1037.44 310.723 1037.44 310.106 1037.44 309.49Z" fill="black"/>
<path d="M1071.35 292.844C1070.11 292.844 1068.26 292.844 1067.03 293.46C1065.8 294.077 1063.95 294.077 1062.72 295.31C1061.48 295.927 1060.25 297.16 1059.63 298.393C1059.02 299.626 1057.79 300.859 1057.79 302.708C1057.79 303.941 1057.17 304.558 1057.17 305.791C1057.17 307.024 1057.17 307.64 1057.17 308.873V323.053H1052.24V289.145H1057.17V295.927C1058.4 293.46 1060.25 290.994 1062.72 289.761C1065.18 288.528 1068.26 287.912 1071.35 287.912V292.844V292.844Z" fill="black"/>
<path d="M1103.4 288.528L1086.14 336H1081.21L1086.14 321.82L1072.58 288.528H1077.51L1088.61 315.039L1098.47 288.528H1103.4Z" fill="black"/>
</g>
<defs>
<clipPath id="clip0_10_486">
<rect width="1276" height="336" fill="white"/>
</clipPath>
</defs>
</svg>
