<svg width="164" height="34" viewBox="0 0 164 34" fill="none" xmlns="http://www.w3.org/2000/svg">
<path d="M30.312 11.944C30.312 13.696 29.688 15.172 28.44 16.372C27.216 17.548 25.716 18.136 23.94 18.136H8.676C6.9 18.136 5.388 17.548 4.14 16.372C2.916 15.172 2.304 13.696 2.304 11.944V7.048C2.304 5.272 2.916 3.796 4.14 2.62C5.388 1.444 6.9 0.856 8.676 0.856H23.94C25.716 0.856 27.216 1.444 28.44 2.62C29.688 3.796 30.312 5.272 30.312 7.048V11.944ZM9.72 10.54C9.72 11.14 9.864 11.62 10.152 11.98C10.464 12.316 11.028 12.484 11.844 12.484H20.772C21.588 12.484 22.14 12.316 22.428 11.98C22.74 11.62 22.896 11.14 22.896 10.54V8.452C22.896 7.828 22.74 7.348 22.428 7.012C22.14 6.676 21.588 6.508 20.772 6.508H11.844C11.028 6.508 10.464 6.676 10.152 7.012C9.864 7.348 9.72 7.828 9.72 8.452V10.54ZM20.196 25.012V31.312C20.196 32.032 19.896 32.644 19.296 33.148C18.696 33.676 18.012 33.94 17.244 33.94H12.888V25.012H3.168C2.4 25.012 1.824 24.844 1.44 24.508C1.056 24.148 0.864 23.584 0.864 22.816V19.468H31.752V22.816C31.752 23.584 31.56 24.148 31.176 24.508C30.792 24.844 30.216 25.012 29.448 25.012H20.196ZM62.289 29.296C62.289 30.616 61.833 31.72 60.921 32.608C60.033 33.52 58.929 33.976 57.609 33.976H54.981V32.752C53.277 33.256 52.029 33.556 51.237 33.652C50.421 33.772 49.377 33.832 48.105 33.832H37.773C36.957 33.832 36.333 33.616 35.901 33.184C35.469 32.776 35.253 32.164 35.253 31.348V13.888H45.009V6.58H37.161C36.465 6.58 35.949 6.436 35.613 6.148C35.301 5.86 35.145 5.368 35.145 4.672V0.963998H52.353V17.488C52.353 18.184 52.185 18.676 51.849 18.964C51.537 19.252 51.033 19.396 50.337 19.396H42.561V28.252H48.573C49.365 28.252 50.373 28.156 51.597 27.964C52.773 27.772 53.901 27.496 54.981 27.136V0.891999H62.289V29.296ZM95.238 4.6C95.238 5.296 95.058 5.812 94.698 6.148C94.338 6.46 93.81 6.616 93.114 6.616H75.258V15.184H95.598V18.748C95.598 19.444 95.418 19.96 95.058 20.296C94.698 20.608 94.17 20.764 93.474 20.764H70.038C69.342 20.764 68.814 20.608 68.454 20.296C68.094 19.96 67.914 19.444 67.914 18.748V0.999998H95.238V4.6ZM77.958 28.288V22.24H85.23V28.288H96.894V31.204C96.894 32.02 96.63 32.668 96.102 33.148C95.574 33.628 94.89 33.868 94.05 33.868H69.066C68.25 33.868 67.566 33.628 67.014 33.148C66.486 32.668 66.222 32.02 66.222 31.204V28.288H77.958ZM108.891 28.288C108.267 29.656 106.899 30.916 104.787 32.068C102.699 33.22 100.779 33.808 99.027 33.832V27.928C100.539 27.664 101.919 26.752 103.167 25.192C104.439 23.608 105.075 21.088 105.075 17.632V0.927999H112.599V17.632C112.599 21.088 113.187 23.608 114.363 25.192C115.563 26.752 116.931 27.664 118.467 27.928V33.832C116.715 33.808 114.831 33.22 112.815 32.068C110.823 30.916 109.515 29.656 108.891 28.288ZM127.827 29.296C127.827 30.616 127.371 31.72 126.459 32.608C125.571 33.52 124.467 33.976 123.147 33.976H120.519V16.408H116.091C115.491 16.408 114.999 16.228 114.615 15.868C114.231 15.484 114.039 14.992 114.039 14.392V10.612H120.519V0.891999H127.827V29.296ZM134.568 6.4C133.992 6.4 133.476 6.208 133.02 5.824C132.588 5.416 132.372 4.864 132.372 4.168V0.856H150.768V8.776C150.768 9.808 150.612 10.888 150.3 12.016C149.988 13.144 149.688 14.02 149.4 14.644H142.488C142.824 13.876 143.064 13 143.208 12.016C143.376 11.032 143.46 10.108 143.46 9.244V6.4H134.568ZM134.1 21.592C133.308 21.592 132.672 21.388 132.192 20.98C131.736 20.572 131.508 19.984 131.508 19.216V16.012H134.892V8.812H141.912V16.012H148.32C149.088 16.012 149.844 15.964 150.588 15.868C151.284 15.772 151.776 15.652 152.064 15.508V0.856H159.372V9.46H163.836V13.564C163.836 14.308 163.608 14.848 163.152 15.184C162.72 15.52 162.108 15.688 161.316 15.688H159.372V22.24C159.372 22.984 159.12 23.584 158.616 24.04C158.112 24.472 157.44 24.688 156.6 24.688H152.064V21.088C151.704 21.208 151.176 21.316 150.48 21.412C149.736 21.532 148.944 21.592 148.104 21.592H134.1ZM136.224 33.976C135.48 33.976 134.892 33.772 134.46 33.364C134.052 32.98 133.848 32.428 133.848 31.708V22.78H141.192V28.36H159.696V31.708C159.696 32.428 159.48 32.98 159.048 33.364C158.616 33.772 158.028 33.976 157.284 33.976H136.224Z" fill="#004A8D"/>
</svg>
